<?xml version="1.0" encoding="UTF-8" standalone="no"?>
<!DOCTYPE svg PUBLIC "-//W3C//DTD SVG 1.1//EN"
 "http://www.w3.org/Graphics/SVG/1.1/DTD/svg11.dtd">
<!-- Generated by graphviz version 2.43.0 (0)
 -->
<!-- Title: snakemake_dag Pages: 1 -->
<svg width="504pt" height="188pt"
 viewBox="0.00 0.00 503.50 188.00" xmlns="http://www.w3.org/2000/svg" xmlns:xlink="http://www.w3.org/1999/xlink">
<g id="graph0" class="graph" transform="scale(1 1) rotate(0) translate(4 184)">
<title>snakemake_dag</title>
<polygon fill="white" stroke="transparent" points="-4,4 -4,-184 499.5,-184 499.5,4 -4,4"/>
<!-- 0 -->
<g id="node1" class="node">
<title>0</title>
<path fill="none" stroke="#56d8a9" stroke-width="2" d="M246,-36C246,-36 216,-36 216,-36 210,-36 204,-30 204,-24 204,-24 204,-12 204,-12 204,-6 210,0 216,0 216,0 246,0 246,0 252,0 258,-6 258,-12 258,-12 258,-24 258,-24 258,-30 252,-36 246,-36"/>
<text text-anchor="middle" x="231" y="-15.5" font-family="sans" font-size="10.00">all</text>
</g>
<!-- 1 -->
<g id="node2" class="node">
<title>1</title>
<path fill="none" stroke="#d85656" stroke-width="2" d="M210,-108C210,-108 162,-108 162,-108 156,-108 150,-102 150,-96 150,-96 150,-84 150,-84 150,-78 156,-72 162,-72 162,-72 210,-72 210,-72 216,-72 222,-78 222,-84 222,-84 222,-96 222,-96 222,-102 216,-108 210,-108"/>
<text text-anchor="middle" x="186" y="-87.5" font-family="sans" font-size="10.00">braker_prot</text>
</g>
<!-- 1&#45;&gt;0 -->
<g id="edge1" class="edge">
<title>1&#45;&gt;0</title>
<path fill="none" stroke="grey" stroke-width="2" d="M197.12,-71.7C202.36,-63.56 208.7,-53.69 214.48,-44.7"/>
<polygon fill="grey" stroke="grey" stroke-width="2" points="217.54,-46.41 220,-36.1 211.65,-42.62 217.54,-46.41"/>
</g>
<!-- 2 -->
<g id="node3" class="node">
<title>2</title>
<path fill="none" stroke="#d85656" stroke-width="2" d="M342,-108C342,-108 294,-108 294,-108 288,-108 282,-102 282,-96 282,-96 282,-84 282,-84 282,-78 288,-72 294,-72 294,-72 342,-72 342,-72 348,-72 354,-78 354,-84 354,-84 354,-96 354,-96 354,-102 348,-108 342,-108"/>
<text text-anchor="middle" x="318" y="-87.5" font-family="sans" font-size="10.00">braker_prot</text>
</g>
<!-- 2&#45;&gt;0 -->
<g id="edge2" class="edge">
<title>2&#45;&gt;0</title>
<path fill="none" stroke="grey" stroke-width="2" d="M296.49,-71.7C285.54,-62.88 272.05,-52.03 260.18,-42.47"/>
<polygon fill="grey" stroke="grey" stroke-width="2" points="262.24,-39.65 252.26,-36.1 257.86,-45.1 262.24,-39.65"/>
</g>
<!-- 3 -->
<g id="node4" class="node">
<title>3</title>
<path fill="none" stroke="#afd856" stroke-width="2" d="M194,-180C194,-180 12,-180 12,-180 6,-180 0,-174 0,-168 0,-168 0,-156 0,-156 0,-150 6,-144 12,-144 12,-144 194,-144 194,-144 200,-144 206,-150 206,-156 206,-156 206,-168 206,-168 206,-174 200,-180 194,-180"/>
<text text-anchor="middle" x="103" y="-165" font-family="sans" font-size="10.00">repeat_masker</text>
<text text-anchor="middle" x="103" y="-154" font-family="sans" font-size="10.00">genome: Dgu_HS1_HYBRID_SCAFFOLD</text>
</g>
<!-- 3&#45;&gt;1 -->
<g id="edge3" class="edge">
<title>3&#45;&gt;1</title>
<path fill="none" stroke="grey" stroke-width="2" d="M123.52,-143.7C133.87,-134.97 146.59,-124.24 157.84,-114.75"/>
<polygon fill="grey" stroke="grey" stroke-width="2" points="160.33,-117.23 165.72,-108.1 155.82,-111.88 160.33,-117.23"/>
</g>
<!-- 4 -->
<g id="node5" class="node">
<title>4</title>
<path fill="none" stroke="#afd856" stroke-width="2" d="M483.5,-180C483.5,-180 236.5,-180 236.5,-180 230.5,-180 224.5,-174 224.5,-168 224.5,-168 224.5,-156 224.5,-156 224.5,-150 230.5,-144 236.5,-144 236.5,-144 483.5,-144 483.5,-144 489.5,-144 495.5,-150 495.5,-156 495.5,-156 495.5,-168 495.5,-168 495.5,-174 489.5,-180 483.5,-180"/>
<text text-anchor="middle" x="360" y="-165" font-family="sans" font-size="10.00">repeat_masker</text>
<text text-anchor="middle" x="360" y="-154" font-family="sans" font-size="10.00">genome: HS1_Sru_omap1_hap1_HYBRID_SCAFFOLD</text>
</g>
<!-- 4&#45;&gt;2 -->
<g id="edge4" class="edge">
<title>4&#45;&gt;2</title>
<path fill="none" stroke="grey" stroke-width="2" d="M349.62,-143.7C344.74,-135.56 338.81,-125.69 333.42,-116.7"/>
<polygon fill="grey" stroke="grey" stroke-width="2" points="336.41,-114.88 328.26,-108.1 330.41,-118.48 336.41,-114.88"/>
</g>
</g>
</svg>
