<?xml version="1.0" encoding="UTF-8" standalone="no"?>
<!DOCTYPE svg PUBLIC "-//W3C//DTD SVG 1.1//EN"
 "http://www.w3.org/Graphics/SVG/1.1/DTD/svg11.dtd">
<!-- Generated by graphviz version 2.43.0 (0)
 -->
<!-- Title: snakemake_dag Pages: 1 -->
<svg width="504pt" height="476pt"
 viewBox="0.00 0.00 503.50 476.00" xmlns="http://www.w3.org/2000/svg" xmlns:xlink="http://www.w3.org/1999/xlink">
<g id="graph0" class="graph" transform="scale(1 1) rotate(0) translate(4 472)">
<title>snakemake_dag</title>
<polygon fill="white" stroke="transparent" points="-4,4 -4,-472 499.5,-472 499.5,4 -4,4"/>
<!-- 0 -->
<g id="node1" class="node">
<title>0</title>
<path fill="none" stroke="#56d873" stroke-width="2" d="M274.5,-36C274.5,-36 244.5,-36 244.5,-36 238.5,-36 232.5,-30 232.5,-24 232.5,-24 232.5,-12 232.5,-12 232.5,-6 238.5,0 244.5,0 244.5,0 274.5,0 274.5,0 280.5,0 286.5,-6 286.5,-12 286.5,-12 286.5,-24 286.5,-24 286.5,-30 280.5,-36 274.5,-36"/>
<text text-anchor="middle" x="259.5" y="-15.5" font-family="sans" font-size="10.00">all</text>
</g>
<!-- 1 -->
<g id="node2" class="node">
<title>1</title>
<path fill="none" stroke="#afd856" stroke-width="2" d="M343.5,-108C343.5,-108 275.5,-108 275.5,-108 269.5,-108 263.5,-102 263.5,-96 263.5,-96 263.5,-84 263.5,-84 263.5,-78 269.5,-72 275.5,-72 275.5,-72 343.5,-72 343.5,-72 349.5,-72 355.5,-78 355.5,-84 355.5,-84 355.5,-96 355.5,-96 355.5,-102 349.5,-108 343.5,-108"/>
<text text-anchor="middle" x="309.5" y="-87.5" font-family="sans" font-size="10.00">build_summary</text>
</g>
<!-- 1&#45;&gt;0 -->
<g id="edge1" class="edge">
<title>1&#45;&gt;0</title>
<path fill="none" stroke="grey" stroke-width="2" d="M297.14,-71.7C291.27,-63.47 284.13,-53.48 277.66,-44.42"/>
<polygon fill="grey" stroke="grey" stroke-width="2" points="280.38,-42.21 271.72,-36.1 274.68,-46.28 280.38,-42.21"/>
</g>
<!-- 2 -->
<g id="node3" class="node">
<title>2</title>
<path fill="none" stroke="#afd856" stroke-width="2" d="M143.5,-108C143.5,-108 75.5,-108 75.5,-108 69.5,-108 63.5,-102 63.5,-96 63.5,-96 63.5,-84 63.5,-84 63.5,-78 69.5,-72 75.5,-72 75.5,-72 143.5,-72 143.5,-72 149.5,-72 155.5,-78 155.5,-84 155.5,-84 155.5,-96 155.5,-96 155.5,-102 149.5,-108 143.5,-108"/>
<text text-anchor="middle" x="109.5" y="-87.5" font-family="sans" font-size="10.00">build_summary</text>
</g>
<!-- 2&#45;&gt;0 -->
<g id="edge2" class="edge">
<title>2&#45;&gt;0</title>
<path fill="none" stroke="grey" stroke-width="2" d="M146.19,-71.88C169.52,-60.99 199.6,-46.95 222.91,-36.07"/>
<polygon fill="grey" stroke="grey" stroke-width="2" points="224.54,-39.18 232.12,-31.78 221.58,-32.83 224.54,-39.18"/>
</g>
<!-- 3 -->
<g id="node4" class="node">
<title>3</title>
<path fill="none" stroke="#d88d56" stroke-width="2" d="M433.5,-108C433.5,-108 385.5,-108 385.5,-108 379.5,-108 373.5,-102 373.5,-96 373.5,-96 373.5,-84 373.5,-84 373.5,-78 379.5,-72 385.5,-72 385.5,-72 433.5,-72 433.5,-72 439.5,-72 445.5,-78 445.5,-84 445.5,-84 445.5,-96 445.5,-96 445.5,-102 439.5,-108 433.5,-108"/>
<text text-anchor="middle" x="409.5" y="-87.5" font-family="sans" font-size="10.00">braker_prot</text>
</g>
<!-- 3&#45;&gt;0 -->
<g id="edge3" class="edge">
<title>3&#45;&gt;0</title>
<path fill="none" stroke="grey" stroke-width="2" d="M373.19,-72.05C349.72,-61.1 319.29,-46.9 295.81,-35.95"/>
<polygon fill="grey" stroke="grey" stroke-width="2" points="297.09,-32.68 286.54,-31.62 294.13,-39.02 297.09,-32.68"/>
</g>
<!-- 4 -->
<g id="node5" class="node">
<title>4</title>
<path fill="none" stroke="#d88d56" stroke-width="2" d="M233.5,-108C233.5,-108 185.5,-108 185.5,-108 179.5,-108 173.5,-102 173.5,-96 173.5,-96 173.5,-84 173.5,-84 173.5,-78 179.5,-72 185.5,-72 185.5,-72 233.5,-72 233.5,-72 239.5,-72 245.5,-78 245.5,-84 245.5,-84 245.5,-96 245.5,-96 245.5,-102 239.5,-108 233.5,-108"/>
<text text-anchor="middle" x="209.5" y="-87.5" font-family="sans" font-size="10.00">braker_prot</text>
</g>
<!-- 4&#45;&gt;0 -->
<g id="edge4" class="edge">
<title>4&#45;&gt;0</title>
<path fill="none" stroke="grey" stroke-width="2" d="M221.86,-71.7C227.73,-63.47 234.87,-53.48 241.34,-44.42"/>
<polygon fill="grey" stroke="grey" stroke-width="2" points="244.32,-46.28 247.28,-36.1 238.62,-42.21 244.32,-46.28"/>
</g>
<!-- 5 -->
<g id="node6" class="node">
<title>5</title>
<path fill="none" stroke="#56c9d8" stroke-width="2" d="M350,-180C350,-180 285,-180 285,-180 279,-180 273,-174 273,-168 273,-168 273,-156 273,-156 273,-150 279,-144 285,-144 285,-144 350,-144 350,-144 356,-144 362,-150 362,-156 362,-156 362,-168 362,-168 362,-174 356,-180 350,-180"/>
<text text-anchor="middle" x="317.5" y="-159.5" font-family="sans" font-size="10.00">repeat_masker</text>
</g>
<!-- 5&#45;&gt;1 -->
<g id="edge5" class="edge">
<title>5&#45;&gt;1</title>
<path fill="none" stroke="grey" stroke-width="2" d="M315.52,-143.7C314.64,-135.98 313.58,-126.71 312.6,-118.11"/>
<polygon fill="grey" stroke="grey" stroke-width="2" points="316.07,-117.64 311.45,-108.1 309.11,-118.44 316.07,-117.64"/>
</g>
<!-- 5&#45;&gt;3 -->
<g id="edge7" class="edge">
<title>5&#45;&gt;3</title>
<path fill="none" stroke="grey" stroke-width="2" d="M340.24,-143.7C351.94,-134.8 366.36,-123.82 379.01,-114.2"/>
<polygon fill="grey" stroke="grey" stroke-width="2" points="381.18,-116.94 387.02,-108.1 376.94,-111.37 381.18,-116.94"/>
</g>
<!-- 6 -->
<g id="node7" class="node">
<title>6</title>
<path fill="none" stroke="#56c9d8" stroke-width="2" d="M188,-180C188,-180 123,-180 123,-180 117,-180 111,-174 111,-168 111,-168 111,-156 111,-156 111,-150 117,-144 123,-144 123,-144 188,-144 188,-144 194,-144 200,-150 200,-156 200,-156 200,-168 200,-168 200,-174 194,-180 188,-180"/>
<text text-anchor="middle" x="155.5" y="-159.5" font-family="sans" font-size="10.00">repeat_masker</text>
</g>
<!-- 6&#45;&gt;2 -->
<g id="edge6" class="edge">
<title>6&#45;&gt;2</title>
<path fill="none" stroke="grey" stroke-width="2" d="M144.13,-143.7C138.78,-135.56 132.3,-125.69 126.39,-116.7"/>
<polygon fill="grey" stroke="grey" stroke-width="2" points="129.16,-114.54 120.74,-108.1 123.31,-118.38 129.16,-114.54"/>
</g>
<!-- 6&#45;&gt;4 -->
<g id="edge8" class="edge">
<title>6&#45;&gt;4</title>
<path fill="none" stroke="grey" stroke-width="2" d="M168.85,-143.7C175.26,-135.39 183.06,-125.28 190.11,-116.14"/>
<polygon fill="grey" stroke="grey" stroke-width="2" points="192.97,-118.16 196.31,-108.1 187.43,-113.88 192.97,-118.16"/>
</g>
<!-- 7 -->
<g id="node8" class="node">
<title>7</title>
<path fill="none" stroke="#5692d8" stroke-width="2" d="M344,-252C344,-252 291,-252 291,-252 285,-252 279,-246 279,-240 279,-240 279,-228 279,-228 279,-222 285,-216 291,-216 291,-216 344,-216 344,-216 350,-216 356,-222 356,-228 356,-228 356,-240 356,-240 356,-246 350,-252 344,-252"/>
<text text-anchor="middle" x="317.5" y="-231.5" font-family="sans" font-size="10.00">join_repeats</text>
</g>
<!-- 7&#45;&gt;5 -->
<g id="edge9" class="edge">
<title>7&#45;&gt;5</title>
<path fill="none" stroke="grey" stroke-width="2" d="M317.5,-215.7C317.5,-207.98 317.5,-198.71 317.5,-190.11"/>
<polygon fill="grey" stroke="grey" stroke-width="2" points="321,-190.1 317.5,-180.1 314,-190.1 321,-190.1"/>
</g>
<!-- 8 -->
<g id="node9" class="node">
<title>8</title>
<path fill="none" stroke="#5692d8" stroke-width="2" d="M182,-252C182,-252 129,-252 129,-252 123,-252 117,-246 117,-240 117,-240 117,-228 117,-228 117,-222 123,-216 129,-216 129,-216 182,-216 182,-216 188,-216 194,-222 194,-228 194,-228 194,-240 194,-240 194,-246 188,-252 182,-252"/>
<text text-anchor="middle" x="155.5" y="-231.5" font-family="sans" font-size="10.00">join_repeats</text>
</g>
<!-- 8&#45;&gt;6 -->
<g id="edge10" class="edge">
<title>8&#45;&gt;6</title>
<path fill="none" stroke="grey" stroke-width="2" d="M155.5,-215.7C155.5,-207.98 155.5,-198.71 155.5,-190.11"/>
<polygon fill="grey" stroke="grey" stroke-width="2" points="159,-190.1 155.5,-180.1 152,-190.1 159,-190.1"/>
</g>
<!-- 9 -->
<g id="node10" class="node">
<title>9</title>
<path fill="none" stroke="#70d856" stroke-width="2" d="M310,-324C310,-324 233,-324 233,-324 227,-324 221,-318 221,-312 221,-312 221,-300 221,-300 221,-294 227,-288 233,-288 233,-288 310,-288 310,-288 316,-288 322,-294 322,-300 322,-300 322,-312 322,-312 322,-318 316,-324 310,-324"/>
<text text-anchor="middle" x="271.5" y="-303.5" font-family="sans" font-size="10.00">te_class_repbase</text>
</g>
<!-- 9&#45;&gt;7 -->
<g id="edge11" class="edge">
<title>9&#45;&gt;7</title>
<path fill="none" stroke="grey" stroke-width="2" d="M282.87,-287.7C288.22,-279.56 294.7,-269.69 300.61,-260.7"/>
<polygon fill="grey" stroke="grey" stroke-width="2" points="303.69,-262.38 306.26,-252.1 297.84,-258.54 303.69,-262.38"/>
</g>
<!-- 9&#45;&gt;8 -->
<g id="edge13" class="edge">
<title>9&#45;&gt;8</title>
<path fill="none" stroke="grey" stroke-width="2" d="M243.12,-287.88C227.96,-278.72 209.09,-267.34 192.76,-257.48"/>
<polygon fill="grey" stroke="grey" stroke-width="2" points="194.36,-254.36 183.99,-252.19 190.74,-260.35 194.36,-254.36"/>
</g>
<!-- 10 -->
<g id="node11" class="node">
<title>10</title>
<path fill="none" stroke="#d8cb56" stroke-width="2" d="M427.5,-324C427.5,-324 353.5,-324 353.5,-324 347.5,-324 341.5,-318 341.5,-312 341.5,-312 341.5,-300 341.5,-300 341.5,-294 347.5,-288 353.5,-288 353.5,-288 427.5,-288 427.5,-288 433.5,-288 439.5,-294 439.5,-300 439.5,-300 439.5,-312 439.5,-312 439.5,-318 433.5,-324 427.5,-324"/>
<text text-anchor="middle" x="390.5" y="-303.5" font-family="sans" font-size="10.00">te_class_denovo</text>
</g>
<!-- 10&#45;&gt;7 -->
<g id="edge12" class="edge">
<title>10&#45;&gt;7</title>
<path fill="none" stroke="grey" stroke-width="2" d="M372.46,-287.7C363.44,-279.05 352.38,-268.45 342.56,-259.03"/>
<polygon fill="grey" stroke="grey" stroke-width="2" points="344.98,-256.5 335.34,-252.1 340.13,-261.55 344.98,-256.5"/>
</g>
<!-- 11 -->
<g id="node12" class="node">
<title>11</title>
<path fill="none" stroke="#d8cb56" stroke-width="2" d="M187.5,-324C187.5,-324 113.5,-324 113.5,-324 107.5,-324 101.5,-318 101.5,-312 101.5,-312 101.5,-300 101.5,-300 101.5,-294 107.5,-288 113.5,-288 113.5,-288 187.5,-288 187.5,-288 193.5,-288 199.5,-294 199.5,-300 199.5,-300 199.5,-312 199.5,-312 199.5,-318 193.5,-324 187.5,-324"/>
<text text-anchor="middle" x="150.5" y="-303.5" font-family="sans" font-size="10.00">te_class_denovo</text>
</g>
<!-- 11&#45;&gt;8 -->
<g id="edge14" class="edge">
<title>11&#45;&gt;8</title>
<path fill="none" stroke="grey" stroke-width="2" d="M151.74,-287.7C152.29,-279.98 152.95,-270.71 153.56,-262.11"/>
<polygon fill="grey" stroke="grey" stroke-width="2" points="157.06,-262.33 154.28,-252.1 150.07,-261.83 157.06,-262.33"/>
</g>
<!-- 12 -->
<g id="node13" class="node">
<title>12</title>
<path fill="none" stroke="#d85656" stroke-width="2" d="M428,-396C428,-396 355,-396 355,-396 349,-396 343,-390 343,-384 343,-384 343,-372 343,-372 343,-366 349,-360 355,-360 355,-360 428,-360 428,-360 434,-360 440,-366 440,-372 440,-372 440,-384 440,-384 440,-390 434,-396 428,-396"/>
<text text-anchor="middle" x="391.5" y="-375.5" font-family="sans" font-size="10.00">repeat_classifier</text>
</g>
<!-- 12&#45;&gt;10 -->
<g id="edge15" class="edge">
<title>12&#45;&gt;10</title>
<path fill="none" stroke="grey" stroke-width="2" d="M391.25,-359.7C391.14,-351.98 391.01,-342.71 390.89,-334.11"/>
<polygon fill="grey" stroke="grey" stroke-width="2" points="394.39,-334.05 390.74,-324.1 387.39,-334.15 394.39,-334.05"/>
</g>
<!-- 13 -->
<g id="node14" class="node">
<title>13</title>
<path fill="none" stroke="#d85656" stroke-width="2" d="M182,-396C182,-396 109,-396 109,-396 103,-396 97,-390 97,-384 97,-384 97,-372 97,-372 97,-366 103,-360 109,-360 109,-360 182,-360 182,-360 188,-360 194,-366 194,-372 194,-372 194,-384 194,-384 194,-390 188,-396 182,-396"/>
<text text-anchor="middle" x="145.5" y="-375.5" font-family="sans" font-size="10.00">repeat_classifier</text>
</g>
<!-- 13&#45;&gt;11 -->
<g id="edge16" class="edge">
<title>13&#45;&gt;11</title>
<path fill="none" stroke="grey" stroke-width="2" d="M146.74,-359.7C147.29,-351.98 147.95,-342.71 148.56,-334.11"/>
<polygon fill="grey" stroke="grey" stroke-width="2" points="152.06,-334.33 149.28,-324.1 145.07,-333.83 152.06,-334.33"/>
</g>
<!-- 14 -->
<g id="node15" class="node">
<title>14</title>
<path fill="none" stroke="#56d8a9" stroke-width="2" d="M483.5,-468C483.5,-468 301.5,-468 301.5,-468 295.5,-468 289.5,-462 289.5,-456 289.5,-456 289.5,-444 289.5,-444 289.5,-438 295.5,-432 301.5,-432 301.5,-432 483.5,-432 483.5,-432 489.5,-432 495.5,-438 495.5,-444 495.5,-444 495.5,-456 495.5,-456 495.5,-462 489.5,-468 483.5,-468"/>
<text text-anchor="middle" x="392.5" y="-453" font-family="sans" font-size="10.00">repeat_modeler</text>
<text text-anchor="middle" x="392.5" y="-442" font-family="sans" font-size="10.00">genome: Dgu_HS1_HYBRID_SCAFFOLD</text>
</g>
<!-- 14&#45;&gt;12 -->
<g id="edge17" class="edge">
<title>14&#45;&gt;12</title>
<path fill="none" stroke="grey" stroke-width="2" d="M392.25,-431.7C392.14,-423.98 392.01,-414.71 391.89,-406.11"/>
<polygon fill="grey" stroke="grey" stroke-width="2" points="395.39,-406.05 391.74,-396.1 388.39,-406.15 395.39,-406.05"/>
</g>
<!-- 15 -->
<g id="node16" class="node">
<title>15</title>
<path fill="none" stroke="#56d8a9" stroke-width="2" d="M259,-468C259,-468 12,-468 12,-468 6,-468 0,-462 0,-456 0,-456 0,-444 0,-444 0,-438 6,-432 12,-432 12,-432 259,-432 259,-432 265,-432 271,-438 271,-444 271,-444 271,-456 271,-456 271,-462 265,-468 259,-468"/>
<text text-anchor="middle" x="135.5" y="-453" font-family="sans" font-size="10.00">repeat_modeler</text>
<text text-anchor="middle" x="135.5" y="-442" font-family="sans" font-size="10.00">genome: HS1_Sru_omap1_hap1_HYBRID_SCAFFOLD</text>
</g>
<!-- 15&#45;&gt;13 -->
<g id="edge18" class="edge">
<title>15&#45;&gt;13</title>
<path fill="none" stroke="grey" stroke-width="2" d="M137.97,-431.7C139.07,-423.98 140.4,-414.71 141.63,-406.11"/>
<polygon fill="grey" stroke="grey" stroke-width="2" points="145.11,-406.5 143.06,-396.1 138.18,-405.51 145.11,-406.5"/>
</g>
</g>
</svg>
