<?xml version="1.0" encoding="UTF-8" standalone="no"?>
<!DOCTYPE svg PUBLIC "-//W3C//DTD SVG 1.1//EN"
 "http://www.w3.org/Graphics/SVG/1.1/DTD/svg11.dtd">
<!-- Generated by graphviz version 2.43.0 (0)
 -->
<!-- Title: snakemake_dag Pages: 1 -->
<svg width="1345pt" height="1268pt"
 viewBox="0.00 0.00 1344.55 1268.00" xmlns="http://www.w3.org/2000/svg" xmlns:xlink="http://www.w3.org/1999/xlink">
<g id="graph0" class="graph" transform="scale(1 1) rotate(0) translate(4 1264)">
<title>snakemake_dag</title>
<polygon fill="white" stroke="transparent" points="-4,4 -4,-1264 1340.55,-1264 1340.55,4 -4,4"/>
<!-- 0 -->
<g id="node1" class="node">
<title>0</title>
<path fill="none" stroke="#56d8a9" stroke-width="2" d="M611,-36C611,-36 581,-36 581,-36 575,-36 569,-30 569,-24 569,-24 569,-12 569,-12 569,-6 575,0 581,0 581,0 611,0 611,0 617,0 623,-6 623,-12 623,-12 623,-24 623,-24 623,-30 617,-36 611,-36"/>
<text text-anchor="middle" x="596" y="-15.5" font-family="sans" font-size="10.00">all</text>
</g>
<!-- 1 -->
<g id="node2" class="node">
<title>1</title>
<path fill="none" stroke="#56a9d8" stroke-width="2" d="M473,-108C473,-108 387,-108 387,-108 381,-108 375,-102 375,-96 375,-96 375,-84 375,-84 375,-78 381,-72 387,-72 387,-72 473,-72 473,-72 479,-72 485,-78 485,-84 485,-84 485,-96 485,-96 485,-102 479,-108 473,-108"/>
<text text-anchor="middle" x="430" y="-87.5" font-family="sans" font-size="10.00">trinotate_summary</text>
</g>
<!-- 1&#45;&gt;0 -->
<g id="edge1" class="edge">
<title>1&#45;&gt;0</title>
<path fill="none" stroke="grey" stroke-width="2" d="M470.61,-71.88C497.79,-60.41 533.27,-45.45 559.55,-34.37"/>
<polygon fill="grey" stroke="grey" stroke-width="2" points="560.93,-37.59 568.78,-30.48 558.21,-31.14 560.93,-37.59"/>
</g>
<!-- 2 -->
<g id="node3" class="node">
<title>2</title>
<path fill="none" stroke="#56a9d8" stroke-width="2" d="M695,-108C695,-108 609,-108 609,-108 603,-108 597,-102 597,-96 597,-96 597,-84 597,-84 597,-78 603,-72 609,-72 609,-72 695,-72 695,-72 701,-72 707,-78 707,-84 707,-84 707,-96 707,-96 707,-102 701,-108 695,-108"/>
<text text-anchor="middle" x="652" y="-87.5" font-family="sans" font-size="10.00">trinotate_summary</text>
</g>
<!-- 2&#45;&gt;0 -->
<g id="edge2" class="edge">
<title>2&#45;&gt;0</title>
<path fill="none" stroke="grey" stroke-width="2" d="M638.16,-71.7C631.51,-63.39 623.42,-53.28 616.11,-44.14"/>
<polygon fill="grey" stroke="grey" stroke-width="2" points="618.66,-41.73 609.68,-36.1 613.2,-46.1 618.66,-41.73"/>
</g>
<!-- 3 -->
<g id="node4" class="node">
<title>3</title>
<path fill="none" stroke="#56d86b" stroke-width="2" d="M567,-108C567,-108 515,-108 515,-108 509,-108 503,-102 503,-96 503,-96 503,-84 503,-84 503,-78 509,-72 515,-72 515,-72 567,-72 567,-72 573,-72 579,-78 579,-84 579,-84 579,-96 579,-96 579,-102 573,-108 567,-108"/>
<text text-anchor="middle" x="541" y="-87.5" font-family="sans" font-size="10.00">trinotate_go</text>
</g>
<!-- 3&#45;&gt;0 -->
<g id="edge3" class="edge">
<title>3&#45;&gt;0</title>
<path fill="none" stroke="grey" stroke-width="2" d="M554.6,-71.7C561.12,-63.39 569.07,-53.28 576.25,-44.14"/>
<polygon fill="grey" stroke="grey" stroke-width="2" points="579.13,-46.13 582.56,-36.1 573.63,-41.81 579.13,-46.13"/>
</g>
<!-- 4 -->
<g id="node5" class="node">
<title>4</title>
<path fill="none" stroke="#56d86b" stroke-width="2" d="M789,-108C789,-108 737,-108 737,-108 731,-108 725,-102 725,-96 725,-96 725,-84 725,-84 725,-78 731,-72 737,-72 737,-72 789,-72 789,-72 795,-72 801,-78 801,-84 801,-84 801,-96 801,-96 801,-102 795,-108 789,-108"/>
<text text-anchor="middle" x="763" y="-87.5" font-family="sans" font-size="10.00">trinotate_go</text>
</g>
<!-- 4&#45;&gt;0 -->
<g id="edge4" class="edge">
<title>4&#45;&gt;0</title>
<path fill="none" stroke="grey" stroke-width="2" d="M724.69,-72.94C697.07,-61.36 660.02,-45.83 632.76,-34.41"/>
<polygon fill="grey" stroke="grey" stroke-width="2" points="633.78,-31.04 623.2,-30.4 631.07,-37.5 633.78,-31.04"/>
</g>
<!-- 5 -->
<g id="node6" class="node">
<title>5</title>
<path fill="none" stroke="#80d856" stroke-width="2" d="M464.5,-180C464.5,-180 395.5,-180 395.5,-180 389.5,-180 383.5,-174 383.5,-168 383.5,-168 383.5,-156 383.5,-156 383.5,-150 389.5,-144 395.5,-144 395.5,-144 464.5,-144 464.5,-144 470.5,-144 476.5,-150 476.5,-156 476.5,-156 476.5,-168 476.5,-168 476.5,-174 470.5,-180 464.5,-180"/>
<text text-anchor="middle" x="430" y="-159.5" font-family="sans" font-size="10.00">trinotate_report</text>
</g>
<!-- 5&#45;&gt;1 -->
<g id="edge5" class="edge">
<title>5&#45;&gt;1</title>
<path fill="none" stroke="grey" stroke-width="2" d="M430,-143.7C430,-135.98 430,-126.71 430,-118.11"/>
<polygon fill="grey" stroke="grey" stroke-width="2" points="433.5,-118.1 430,-108.1 426.5,-118.1 433.5,-118.1"/>
</g>
<!-- 5&#45;&gt;3 -->
<g id="edge7" class="edge">
<title>5&#45;&gt;3</title>
<path fill="none" stroke="grey" stroke-width="2" d="M457.15,-143.88C471.53,-134.81 489.38,-123.55 504.91,-113.76"/>
<polygon fill="grey" stroke="grey" stroke-width="2" points="507.15,-116.48 513.74,-108.19 503.42,-110.56 507.15,-116.48"/>
</g>
<!-- 6 -->
<g id="node7" class="node">
<title>6</title>
<path fill="none" stroke="#80d856" stroke-width="2" d="M797.5,-180C797.5,-180 728.5,-180 728.5,-180 722.5,-180 716.5,-174 716.5,-168 716.5,-168 716.5,-156 716.5,-156 716.5,-150 722.5,-144 728.5,-144 728.5,-144 797.5,-144 797.5,-144 803.5,-144 809.5,-150 809.5,-156 809.5,-156 809.5,-168 809.5,-168 809.5,-174 803.5,-180 797.5,-180"/>
<text text-anchor="middle" x="763" y="-159.5" font-family="sans" font-size="10.00">trinotate_report</text>
</g>
<!-- 6&#45;&gt;2 -->
<g id="edge6" class="edge">
<title>6&#45;&gt;2</title>
<path fill="none" stroke="grey" stroke-width="2" d="M735.85,-143.88C721.47,-134.81 703.62,-123.55 688.09,-113.76"/>
<polygon fill="grey" stroke="grey" stroke-width="2" points="689.58,-110.56 679.26,-108.19 685.85,-116.48 689.58,-110.56"/>
</g>
<!-- 6&#45;&gt;4 -->
<g id="edge8" class="edge">
<title>6&#45;&gt;4</title>
<path fill="none" stroke="grey" stroke-width="2" d="M763,-143.7C763,-135.98 763,-126.71 763,-118.11"/>
<polygon fill="grey" stroke="grey" stroke-width="2" points="766.5,-118.1 763,-108.1 759.5,-118.1 766.5,-118.1"/>
</g>
<!-- 7 -->
<g id="node8" class="node">
<title>7</title>
<path fill="none" stroke="#56d8b9" stroke-width="2" d="M362.5,-252C362.5,-252 301.5,-252 301.5,-252 295.5,-252 289.5,-246 289.5,-240 289.5,-240 289.5,-228 289.5,-228 289.5,-222 295.5,-216 301.5,-216 301.5,-216 362.5,-216 362.5,-216 368.5,-216 374.5,-222 374.5,-228 374.5,-228 374.5,-240 374.5,-240 374.5,-246 368.5,-252 362.5,-252"/>
<text text-anchor="middle" x="332" y="-231.5" font-family="sans" font-size="10.00">trinotate_load</text>
</g>
<!-- 7&#45;&gt;5 -->
<g id="edge9" class="edge">
<title>7&#45;&gt;5</title>
<path fill="none" stroke="grey" stroke-width="2" d="M355.97,-215.88C368.55,-206.89 384.13,-195.76 397.75,-186.03"/>
<polygon fill="grey" stroke="grey" stroke-width="2" points="399.83,-188.85 405.93,-180.19 395.76,-183.15 399.83,-188.85"/>
</g>
<!-- 8 -->
<g id="node9" class="node">
<title>8</title>
<path fill="none" stroke="#56d8b9" stroke-width="2" d="M937.5,-252C937.5,-252 876.5,-252 876.5,-252 870.5,-252 864.5,-246 864.5,-240 864.5,-240 864.5,-228 864.5,-228 864.5,-222 870.5,-216 876.5,-216 876.5,-216 937.5,-216 937.5,-216 943.5,-216 949.5,-222 949.5,-228 949.5,-228 949.5,-240 949.5,-240 949.5,-246 943.5,-252 937.5,-252"/>
<text text-anchor="middle" x="907" y="-231.5" font-family="sans" font-size="10.00">trinotate_load</text>
</g>
<!-- 8&#45;&gt;6 -->
<g id="edge10" class="edge">
<title>8&#45;&gt;6</title>
<path fill="none" stroke="grey" stroke-width="2" d="M871.77,-215.88C852.42,-206.47 828.23,-194.71 807.57,-184.67"/>
<polygon fill="grey" stroke="grey" stroke-width="2" points="808.89,-181.41 798.36,-180.19 805.83,-187.71 808.89,-181.41"/>
</g>
<!-- 9 -->
<g id="node10" class="node">
<title>9</title>
<path fill="none" stroke="#d87d56" stroke-width="2" d="M532,-612C532,-612 452,-612 452,-612 446,-612 440,-606 440,-600 440,-600 440,-588 440,-588 440,-582 446,-576 452,-576 452,-576 532,-576 532,-576 538,-576 544,-582 544,-588 544,-588 544,-600 544,-600 544,-606 538,-612 532,-612"/>
<text text-anchor="middle" x="492" y="-591.5" font-family="sans" font-size="10.00">bedtools_getfasta</text>
</g>
<!-- 9&#45;&gt;7 -->
<g id="edge11" class="edge">
<title>9&#45;&gt;7</title>
<path fill="none" stroke="grey" stroke-width="2" d="M543.14,-575.91C560.73,-567.65 578.99,-555.97 591,-540 615.31,-507.67 610,-491.45 610,-451 610,-451 610,-451 610,-377 610,-276.82 465.06,-247.28 384.49,-238.59"/>
<polygon fill="grey" stroke="grey" stroke-width="2" points="384.83,-235.11 374.52,-237.59 384.12,-242.08 384.83,-235.11"/>
</g>
<!-- 11 -->
<g id="node12" class="node">
<title>11</title>
<path fill="none" stroke="#d89556" stroke-width="2" d="M324,-540C324,-540 268,-540 268,-540 262,-540 256,-534 256,-528 256,-528 256,-516 256,-516 256,-510 262,-504 268,-504 268,-504 324,-504 324,-504 330,-504 336,-510 336,-516 336,-516 336,-528 336,-528 336,-534 330,-540 324,-540"/>
<text text-anchor="middle" x="296" y="-519.5" font-family="sans" font-size="10.00">transdecoder</text>
</g>
<!-- 9&#45;&gt;11 -->
<g id="edge34" class="edge">
<title>9&#45;&gt;11</title>
<path fill="none" stroke="grey" stroke-width="2" d="M444.3,-575.97C414.45,-565.3 376.04,-551.59 345.8,-540.79"/>
<polygon fill="grey" stroke="grey" stroke-width="2" points="346.88,-537.46 336.29,-537.39 344.53,-544.05 346.88,-537.46"/>
</g>
<!-- 12 -->
<g id="node13" class="node">
<title>12</title>
<path fill="none" stroke="#8fd856" stroke-width="2" d="M474,-324C474,-324 444,-324 444,-324 438,-324 432,-318 432,-312 432,-312 432,-300 432,-300 432,-294 438,-288 444,-288 444,-288 474,-288 474,-288 480,-288 486,-294 486,-300 486,-300 486,-312 486,-312 486,-318 480,-324 474,-324"/>
<text text-anchor="middle" x="459" y="-303.5" font-family="sans" font-size="10.00">blastx</text>
</g>
<!-- 9&#45;&gt;12 -->
<g id="edge36" class="edge">
<title>9&#45;&gt;12</title>
<path fill="none" stroke="grey" stroke-width="2" d="M493.75,-575.72C497.22,-536.63 503.05,-438.68 484,-360 481.77,-350.8 477.87,-341.3 473.79,-332.91"/>
<polygon fill="grey" stroke="grey" stroke-width="2" points="476.89,-331.29 469.2,-324.01 470.67,-334.5 476.89,-331.29"/>
</g>
<!-- 17 -->
<g id="node18" class="node">
<title>17</title>
<path fill="none" stroke="#56b9d8" stroke-width="2" d="M570,-540C570,-540 532,-540 532,-540 526,-540 520,-534 520,-528 520,-528 520,-516 520,-516 520,-510 526,-504 532,-504 532,-504 570,-504 570,-504 576,-504 582,-510 582,-516 582,-516 582,-528 582,-528 582,-534 576,-540 570,-540"/>
<text text-anchor="middle" x="551" y="-519.5" font-family="sans" font-size="10.00">rnammer</text>
</g>
<!-- 9&#45;&gt;17 -->
<g id="edge45" class="edge">
<title>9&#45;&gt;17</title>
<path fill="none" stroke="grey" stroke-width="2" d="M506.58,-575.7C513.66,-567.3 522.28,-557.07 530.05,-547.86"/>
<polygon fill="grey" stroke="grey" stroke-width="2" points="532.81,-550.01 536.58,-540.1 527.46,-545.49 532.81,-550.01"/>
</g>
<!-- 10 -->
<g id="node11" class="node">
<title>10</title>
<path fill="none" stroke="#56d8d0" stroke-width="2" d="M332,-684C332,-684 294,-684 294,-684 288,-684 282,-678 282,-672 282,-672 282,-660 282,-660 282,-654 288,-648 294,-648 294,-648 332,-648 332,-648 338,-648 344,-654 344,-660 344,-660 344,-672 344,-672 344,-678 338,-684 332,-684"/>
<text text-anchor="middle" x="313" y="-663.5" font-family="sans" font-size="10.00">prep_trsc</text>
</g>
<!-- 10&#45;&gt;7 -->
<g id="edge12" class="edge">
<title>10&#45;&gt;7</title>
<path fill="none" stroke="grey" stroke-width="2" d="M281.84,-664.93C202.67,-662.96 0,-645.92 0,-523 0,-523 0,-523 0,-377 0,-257.06 185.44,-237.08 279.14,-234.64"/>
<polygon fill="grey" stroke="grey" stroke-width="2" points="279.35,-238.14 289.28,-234.44 279.21,-231.14 279.35,-238.14"/>
</g>
<!-- 10&#45;&gt;9 -->
<g id="edge32" class="edge">
<title>10&#45;&gt;9</title>
<path fill="none" stroke="grey" stroke-width="2" d="M344.18,-652.81C370.32,-642.58 408.22,-627.76 439.1,-615.69"/>
<polygon fill="grey" stroke="grey" stroke-width="2" points="440.4,-618.94 448.44,-612.03 437.85,-612.42 440.4,-618.94"/>
</g>
<!-- 10&#45;&gt;11 -->
<g id="edge35" class="edge">
<title>10&#45;&gt;11</title>
<path fill="none" stroke="grey" stroke-width="2" d="M310.95,-647.87C308.05,-623.67 302.73,-579.21 299.28,-550.39"/>
<polygon fill="grey" stroke="grey" stroke-width="2" points="302.72,-549.7 298.06,-540.19 295.77,-550.53 302.72,-549.7"/>
</g>
<!-- 11&#45;&gt;7 -->
<g id="edge13" class="edge">
<title>11&#45;&gt;7</title>
<path fill="none" stroke="grey" stroke-width="2" d="M255.73,-518.02C194.23,-512.53 81.47,-498.49 57,-468 46.99,-455.52 55.9,-447.96 57,-432 61.46,-367.54 32.86,-335.19 77,-288 103.94,-259.2 212.54,-245.04 279.02,-238.94"/>
<polygon fill="grey" stroke="grey" stroke-width="2" points="279.66,-242.4 289.31,-238.03 279.04,-235.43 279.66,-242.4"/>
</g>
<!-- 13 -->
<g id="node14" class="node">
<title>13</title>
<path fill="none" stroke="#5692d8" stroke-width="2" d="M402,-324C402,-324 372,-324 372,-324 366,-324 360,-318 360,-312 360,-312 360,-300 360,-300 360,-294 366,-288 372,-288 372,-288 402,-288 402,-288 408,-288 414,-294 414,-300 414,-300 414,-312 414,-312 414,-318 408,-324 402,-324"/>
<text text-anchor="middle" x="387" y="-303.5" font-family="sans" font-size="10.00">blastp</text>
</g>
<!-- 11&#45;&gt;13 -->
<g id="edge38" class="edge">
<title>11&#45;&gt;13</title>
<path fill="none" stroke="grey" stroke-width="2" d="M336.18,-504.83C377.58,-485.73 439.78,-449.61 467,-396 474.24,-381.73 474.57,-374.1 467,-360 461.93,-350.56 441.76,-337.23 422.94,-326.29"/>
<polygon fill="grey" stroke="grey" stroke-width="2" points="424.59,-323.21 414.17,-321.31 421.13,-329.29 424.59,-323.21"/>
</g>
<!-- 15 -->
<g id="node16" class="node">
<title>15</title>
<path fill="none" stroke="#567bd8" stroke-width="2" d="M256,-468C256,-468 224,-468 224,-468 218,-468 212,-462 212,-456 212,-456 212,-444 212,-444 212,-438 218,-432 224,-432 224,-432 256,-432 256,-432 262,-432 268,-438 268,-444 268,-444 268,-456 268,-456 268,-462 262,-468 256,-468"/>
<text text-anchor="middle" x="240" y="-447.5" font-family="sans" font-size="10.00">tmhmm</text>
</g>
<!-- 11&#45;&gt;15 -->
<g id="edge42" class="edge">
<title>11&#45;&gt;15</title>
<path fill="none" stroke="grey" stroke-width="2" d="M282.16,-503.7C275.51,-495.39 267.42,-485.28 260.11,-476.14"/>
<polygon fill="grey" stroke="grey" stroke-width="2" points="262.66,-473.73 253.68,-468.1 257.2,-478.1 262.66,-473.73"/>
</g>
<!-- 16 -->
<g id="node17" class="node">
<title>16</title>
<path fill="none" stroke="#a7d856" stroke-width="2" d="M291.5,-324C291.5,-324 250.5,-324 250.5,-324 244.5,-324 238.5,-318 238.5,-312 238.5,-312 238.5,-300 238.5,-300 238.5,-294 244.5,-288 250.5,-288 250.5,-288 291.5,-288 291.5,-288 297.5,-288 303.5,-294 303.5,-300 303.5,-300 303.5,-312 303.5,-312 303.5,-318 297.5,-324 291.5,-324"/>
<text text-anchor="middle" x="271" y="-303.5" font-family="sans" font-size="10.00">hmmscan</text>
</g>
<!-- 11&#45;&gt;16 -->
<g id="edge43" class="edge">
<title>11&#45;&gt;16</title>
<path fill="none" stroke="grey" stroke-width="2" d="M295.07,-503.67C293.46,-485.01 289.05,-454.94 277,-432 266.77,-412.52 251.13,-416.45 243,-396 234.74,-375.24 243.52,-351.01 253.36,-333.07"/>
<polygon fill="grey" stroke="grey" stroke-width="2" points="256.46,-334.71 258.53,-324.32 250.43,-331.16 256.46,-334.71"/>
</g>
<!-- 32 -->
<g id="node33" class="node">
<title>32</title>
<path fill="none" stroke="#d85656" stroke-width="2" d="M182,-468C182,-468 78,-468 78,-468 72,-468 66,-462 66,-456 66,-456 66,-444 66,-444 66,-438 72,-432 78,-432 78,-432 182,-432 182,-432 188,-432 194,-438 194,-444 194,-444 194,-456 194,-456 194,-462 188,-468 182,-468"/>
<text text-anchor="middle" x="130" y="-447.5" font-family="sans" font-size="10.00">rename_fasta_headers</text>
</g>
<!-- 11&#45;&gt;32 -->
<g id="edge65" class="edge">
<title>11&#45;&gt;32</title>
<path fill="none" stroke="grey" stroke-width="2" d="M255.82,-504.05C232.94,-494.41 204.1,-482.25 179.8,-472"/>
<polygon fill="grey" stroke="grey" stroke-width="2" points="180.96,-468.69 170.39,-468.03 178.24,-475.14 180.96,-468.69"/>
</g>
<!-- 12&#45;&gt;7 -->
<g id="edge14" class="edge">
<title>12&#45;&gt;7</title>
<path fill="none" stroke="grey" stroke-width="2" d="M431.76,-289.98C414.39,-280.41 391.58,-267.84 372.16,-257.14"/>
<polygon fill="grey" stroke="grey" stroke-width="2" points="373.67,-253.97 363.22,-252.21 370.29,-260.1 373.67,-253.97"/>
</g>
<!-- 13&#45;&gt;7 -->
<g id="edge15" class="edge">
<title>13&#45;&gt;7</title>
<path fill="none" stroke="grey" stroke-width="2" d="M373.4,-287.7C366.88,-279.39 358.93,-269.28 351.75,-260.14"/>
<polygon fill="grey" stroke="grey" stroke-width="2" points="354.37,-257.81 345.44,-252.1 348.87,-262.13 354.37,-257.81"/>
</g>
<!-- 14 -->
<g id="node15" class="node">
<title>14</title>
<path fill="none" stroke="#d8bc56" stroke-width="2" d="M146,-324C146,-324 98,-324 98,-324 92,-324 86,-318 86,-312 86,-312 86,-300 86,-300 86,-294 92,-288 98,-288 98,-288 146,-288 146,-288 152,-288 158,-294 158,-300 158,-300 158,-312 158,-312 158,-318 152,-324 146,-324"/>
<text text-anchor="middle" x="122" y="-303.5" font-family="sans" font-size="10.00">rename_gff</text>
</g>
<!-- 14&#45;&gt;7 -->
<g id="edge16" class="edge">
<title>14&#45;&gt;7</title>
<path fill="none" stroke="grey" stroke-width="2" d="M158.04,-292.71C162.73,-291.12 167.48,-289.52 172,-288 207.8,-275.99 248.16,-262.62 279.39,-252.31"/>
<polygon fill="grey" stroke="grey" stroke-width="2" points="280.79,-255.54 289.19,-249.08 278.59,-248.89 280.79,-255.54"/>
</g>
<!-- 15&#45;&gt;7 -->
<g id="edge17" class="edge">
<title>15&#45;&gt;7</title>
<path fill="none" stroke="grey" stroke-width="2" d="M232.84,-431.97C220.97,-400.82 201.13,-333.68 229,-288 240.3,-269.48 260.36,-257.16 279.79,-249.1"/>
<polygon fill="grey" stroke="grey" stroke-width="2" points="281.15,-252.33 289.24,-245.48 278.65,-245.79 281.15,-252.33"/>
</g>
<!-- 16&#45;&gt;7 -->
<g id="edge18" class="edge">
<title>16&#45;&gt;7</title>
<path fill="none" stroke="grey" stroke-width="2" d="M286.08,-287.7C293.39,-279.3 302.31,-269.07 310.34,-259.86"/>
<polygon fill="grey" stroke="grey" stroke-width="2" points="313.16,-261.94 317.09,-252.1 307.89,-257.34 313.16,-261.94"/>
</g>
<!-- 17&#45;&gt;7 -->
<g id="edge19" class="edge">
<title>17&#45;&gt;7</title>
<path fill="none" stroke="grey" stroke-width="2" d="M552.14,-503.78C553.97,-461.28 552.61,-350.32 495,-288 466.78,-257.47 420.81,-244.48 384.88,-238.98"/>
<polygon fill="grey" stroke="grey" stroke-width="2" points="384.94,-235.45 374.56,-237.55 383.98,-242.39 384.94,-235.45"/>
</g>
<!-- 18 -->
<g id="node19" class="node">
<title>18</title>
<path fill="none" stroke="#56d892" stroke-width="2" d="M446,-396C446,-396 264,-396 264,-396 258,-396 252,-390 252,-384 252,-384 252,-372 252,-372 252,-366 258,-360 264,-360 264,-360 446,-360 446,-360 452,-360 458,-366 458,-372 458,-372 458,-384 458,-384 458,-390 452,-396 446,-396"/>
<text text-anchor="middle" x="355" y="-381" font-family="sans" font-size="10.00">trinotate_db</text>
<text text-anchor="middle" x="355" y="-370" font-family="sans" font-size="10.00">genome: Dgu_HS1_HYBRID_SCAFFOLD</text>
</g>
<!-- 18&#45;&gt;7 -->
<g id="edge20" class="edge">
<title>18&#45;&gt;7</title>
<path fill="none" stroke="grey" stroke-width="2" d="M352.23,-359.87C348.31,-335.67 341.1,-291.21 336.44,-262.39"/>
<polygon fill="grey" stroke="grey" stroke-width="2" points="339.84,-261.5 334.78,-252.19 332.93,-262.62 339.84,-261.5"/>
</g>
<!-- 18&#45;&gt;12 -->
<g id="edge37" class="edge">
<title>18&#45;&gt;12</title>
<path fill="none" stroke="grey" stroke-width="2" d="M380.44,-359.88C393.79,-350.89 410.32,-339.76 424.78,-330.03"/>
<polygon fill="grey" stroke="grey" stroke-width="2" points="427.12,-332.68 433.46,-324.19 423.21,-326.87 427.12,-332.68"/>
</g>
<!-- 18&#45;&gt;13 -->
<g id="edge39" class="edge">
<title>18&#45;&gt;13</title>
<path fill="none" stroke="grey" stroke-width="2" d="M362.91,-359.7C366.55,-351.73 370.95,-342.1 374.99,-333.26"/>
<polygon fill="grey" stroke="grey" stroke-width="2" points="378.21,-334.65 379.18,-324.1 371.84,-331.74 378.21,-334.65"/>
</g>
<!-- 18&#45;&gt;16 -->
<g id="edge44" class="edge">
<title>18&#45;&gt;16</title>
<path fill="none" stroke="grey" stroke-width="2" d="M334.24,-359.7C323.76,-350.97 310.89,-340.24 299.5,-330.75"/>
<polygon fill="grey" stroke="grey" stroke-width="2" points="301.45,-327.82 291.53,-324.1 296.97,-333.19 301.45,-327.82"/>
</g>
<!-- 19 -->
<g id="node20" class="node">
<title>19</title>
<path fill="none" stroke="#d87d56" stroke-width="2" d="M1242,-612C1242,-612 1162,-612 1162,-612 1156,-612 1150,-606 1150,-600 1150,-600 1150,-588 1150,-588 1150,-582 1156,-576 1162,-576 1162,-576 1242,-576 1242,-576 1248,-576 1254,-582 1254,-588 1254,-588 1254,-600 1254,-600 1254,-606 1248,-612 1242,-612"/>
<text text-anchor="middle" x="1202" y="-591.5" font-family="sans" font-size="10.00">bedtools_getfasta</text>
</g>
<!-- 19&#45;&gt;8 -->
<g id="edge21" class="edge">
<title>19&#45;&gt;8</title>
<path fill="none" stroke="grey" stroke-width="2" d="M1254.29,-580.02C1276.4,-571.98 1300.56,-559.37 1316,-540 1341.21,-508.37 1335,-491.45 1335,-451 1335,-451 1335,-451 1335,-377 1335,-298.73 1073.86,-256.09 959.54,-241.18"/>
<polygon fill="grey" stroke="grey" stroke-width="2" points="959.97,-237.71 949.6,-239.91 959.08,-244.65 959.97,-237.71"/>
</g>
<!-- 21 -->
<g id="node22" class="node">
<title>21</title>
<path fill="none" stroke="#d89556" stroke-width="2" d="M930,-540C930,-540 874,-540 874,-540 868,-540 862,-534 862,-528 862,-528 862,-516 862,-516 862,-510 868,-504 874,-504 874,-504 930,-504 930,-504 936,-504 942,-510 942,-516 942,-516 942,-528 942,-528 942,-534 936,-540 930,-540"/>
<text text-anchor="middle" x="902" y="-519.5" font-family="sans" font-size="10.00">transdecoder</text>
</g>
<!-- 19&#45;&gt;21 -->
<g id="edge49" class="edge">
<title>19&#45;&gt;21</title>
<path fill="none" stroke="grey" stroke-width="2" d="M1149.74,-580.81C1094.11,-567.83 1006.72,-547.43 951.97,-534.66"/>
<polygon fill="grey" stroke="grey" stroke-width="2" points="952.68,-531.23 942.15,-532.37 951.09,-538.05 952.68,-531.23"/>
</g>
<!-- 22 -->
<g id="node23" class="node">
<title>22</title>
<path fill="none" stroke="#8fd856" stroke-width="2" d="M1117,-324C1117,-324 1087,-324 1087,-324 1081,-324 1075,-318 1075,-312 1075,-312 1075,-300 1075,-300 1075,-294 1081,-288 1087,-288 1087,-288 1117,-288 1117,-288 1123,-288 1129,-294 1129,-300 1129,-300 1129,-312 1129,-312 1129,-318 1123,-324 1117,-324"/>
<text text-anchor="middle" x="1102" y="-303.5" font-family="sans" font-size="10.00">blastx</text>
</g>
<!-- 19&#45;&gt;22 -->
<g id="edge51" class="edge">
<title>19&#45;&gt;22</title>
<path fill="none" stroke="grey" stroke-width="2" d="M1207.08,-575.92C1218.16,-535.13 1240.24,-430.19 1198,-360 1185.06,-338.5 1159.99,-325.09 1138.72,-317.14"/>
<polygon fill="grey" stroke="grey" stroke-width="2" points="1139.87,-313.83 1129.27,-313.86 1137.57,-320.44 1139.87,-313.83"/>
</g>
<!-- 27 -->
<g id="node28" class="node">
<title>27</title>
<path fill="none" stroke="#56b9d8" stroke-width="2" d="M1295,-540C1295,-540 1257,-540 1257,-540 1251,-540 1245,-534 1245,-528 1245,-528 1245,-516 1245,-516 1245,-510 1251,-504 1257,-504 1257,-504 1295,-504 1295,-504 1301,-504 1307,-510 1307,-516 1307,-516 1307,-528 1307,-528 1307,-534 1301,-540 1295,-540"/>
<text text-anchor="middle" x="1276" y="-519.5" font-family="sans" font-size="10.00">rnammer</text>
</g>
<!-- 19&#45;&gt;27 -->
<g id="edge60" class="edge">
<title>19&#45;&gt;27</title>
<path fill="none" stroke="grey" stroke-width="2" d="M1220.29,-575.7C1229.43,-567.05 1240.64,-556.45 1250.6,-547.03"/>
<polygon fill="grey" stroke="grey" stroke-width="2" points="1253.06,-549.52 1257.92,-540.1 1248.25,-544.43 1253.06,-549.52"/>
</g>
<!-- 20 -->
<g id="node21" class="node">
<title>20</title>
<path fill="none" stroke="#56d8d0" stroke-width="2" d="M921,-684C921,-684 883,-684 883,-684 877,-684 871,-678 871,-672 871,-672 871,-660 871,-660 871,-654 877,-648 883,-648 883,-648 921,-648 921,-648 927,-648 933,-654 933,-660 933,-660 933,-672 933,-672 933,-678 927,-684 921,-684"/>
<text text-anchor="middle" x="902" y="-663.5" font-family="sans" font-size="10.00">prep_trsc</text>
</g>
<!-- 20&#45;&gt;8 -->
<g id="edge22" class="edge">
<title>20&#45;&gt;8</title>
<path fill="none" stroke="grey" stroke-width="2" d="M870.85,-662.09C803.03,-653.88 648,-624.04 648,-523 648,-523 648,-523 648,-377 648,-332.06 660.53,-315.59 696,-288 741.59,-252.53 808.01,-240.53 854.11,-236.61"/>
<polygon fill="grey" stroke="grey" stroke-width="2" points="854.49,-240.09 864.2,-235.85 853.96,-233.11 854.49,-240.09"/>
</g>
<!-- 20&#45;&gt;19 -->
<g id="edge47" class="edge">
<title>20&#45;&gt;19</title>
<path fill="none" stroke="grey" stroke-width="2" d="M933.26,-657.71C981.97,-646.34 1076.95,-624.18 1139.94,-609.48"/>
<polygon fill="grey" stroke="grey" stroke-width="2" points="1140.82,-612.87 1149.77,-607.19 1139.23,-606.05 1140.82,-612.87"/>
</g>
<!-- 20&#45;&gt;21 -->
<g id="edge50" class="edge">
<title>20&#45;&gt;21</title>
<path fill="none" stroke="grey" stroke-width="2" d="M902,-647.87C902,-623.67 902,-579.21 902,-550.39"/>
<polygon fill="grey" stroke="grey" stroke-width="2" points="905.5,-550.19 902,-540.19 898.5,-550.19 905.5,-550.19"/>
</g>
<!-- 21&#45;&gt;8 -->
<g id="edge23" class="edge">
<title>21&#45;&gt;8</title>
<path fill="none" stroke="grey" stroke-width="2" d="M861.86,-515.95C809.96,-508.51 723.96,-492.74 705,-468 676.8,-431.21 639.99,-386.37 725,-288 756.84,-251.16 812.67,-239.2 854.13,-235.67"/>
<polygon fill="grey" stroke="grey" stroke-width="2" points="854.61,-239.14 864.33,-234.94 854.11,-232.16 854.61,-239.14"/>
</g>
<!-- 23 -->
<g id="node24" class="node">
<title>23</title>
<path fill="none" stroke="#5692d8" stroke-width="2" d="M1045,-324C1045,-324 1015,-324 1015,-324 1009,-324 1003,-318 1003,-312 1003,-312 1003,-300 1003,-300 1003,-294 1009,-288 1015,-288 1015,-288 1045,-288 1045,-288 1051,-288 1057,-294 1057,-300 1057,-300 1057,-312 1057,-312 1057,-318 1051,-324 1045,-324"/>
<text text-anchor="middle" x="1030" y="-303.5" font-family="sans" font-size="10.00">blastp</text>
</g>
<!-- 21&#45;&gt;23 -->
<g id="edge53" class="edge">
<title>21&#45;&gt;23</title>
<path fill="none" stroke="grey" stroke-width="2" d="M942.16,-516.51C1005.69,-506.99 1127.62,-478.41 1181,-396 1189.7,-382.57 1190.47,-372.89 1181,-360 1151.08,-319.29 1119.67,-340.69 1067.06,-323.86"/>
<polygon fill="grey" stroke="grey" stroke-width="2" points="1067.94,-320.46 1057.35,-320.39 1065.59,-327.05 1067.94,-320.46"/>
</g>
<!-- 25 -->
<g id="node26" class="node">
<title>25</title>
<path fill="none" stroke="#567bd8" stroke-width="2" d="M904,-468C904,-468 872,-468 872,-468 866,-468 860,-462 860,-456 860,-456 860,-444 860,-444 860,-438 866,-432 872,-432 872,-432 904,-432 904,-432 910,-432 916,-438 916,-444 916,-444 916,-456 916,-456 916,-462 910,-468 904,-468"/>
<text text-anchor="middle" x="888" y="-447.5" font-family="sans" font-size="10.00">tmhmm</text>
</g>
<!-- 21&#45;&gt;25 -->
<g id="edge57" class="edge">
<title>21&#45;&gt;25</title>
<path fill="none" stroke="grey" stroke-width="2" d="M898.54,-503.7C897,-495.98 895.14,-486.71 893.42,-478.11"/>
<polygon fill="grey" stroke="grey" stroke-width="2" points="896.81,-477.22 891.42,-468.1 889.95,-478.6 896.81,-477.22"/>
</g>
<!-- 26 -->
<g id="node27" class="node">
<title>26</title>
<path fill="none" stroke="#a7d856" stroke-width="2" d="M927.5,-324C927.5,-324 886.5,-324 886.5,-324 880.5,-324 874.5,-318 874.5,-312 874.5,-312 874.5,-300 874.5,-300 874.5,-294 880.5,-288 886.5,-288 886.5,-288 927.5,-288 927.5,-288 933.5,-288 939.5,-294 939.5,-300 939.5,-300 939.5,-312 939.5,-312 939.5,-318 933.5,-324 927.5,-324"/>
<text text-anchor="middle" x="907" y="-303.5" font-family="sans" font-size="10.00">hmmscan</text>
</g>
<!-- 21&#45;&gt;26 -->
<g id="edge58" class="edge">
<title>21&#45;&gt;26</title>
<path fill="none" stroke="grey" stroke-width="2" d="M911.54,-503.93C916.64,-493.82 922.39,-480.57 925,-468 928.25,-452.33 930.8,-446.91 925,-432 917.13,-411.77 899.87,-416.23 892,-396 884.22,-376.01 889.05,-351.95 895.23,-333.89"/>
<polygon fill="grey" stroke="grey" stroke-width="2" points="898.6,-334.87 898.83,-324.28 892.05,-332.41 898.6,-334.87"/>
</g>
<!-- 36 -->
<g id="node37" class="node">
<title>36</title>
<path fill="none" stroke="#d85656" stroke-width="2" d="M830,-468C830,-468 726,-468 726,-468 720,-468 714,-462 714,-456 714,-456 714,-444 714,-444 714,-438 720,-432 726,-432 726,-432 830,-432 830,-432 836,-432 842,-438 842,-444 842,-444 842,-456 842,-456 842,-462 836,-468 830,-468"/>
<text text-anchor="middle" x="778" y="-447.5" font-family="sans" font-size="10.00">rename_fasta_headers</text>
</g>
<!-- 21&#45;&gt;36 -->
<g id="edge70" class="edge">
<title>21&#45;&gt;36</title>
<path fill="none" stroke="grey" stroke-width="2" d="M871.67,-503.88C855.3,-494.64 834.92,-483.13 817.35,-473.21"/>
<polygon fill="grey" stroke="grey" stroke-width="2" points="818.88,-470.06 808.45,-468.19 815.44,-476.15 818.88,-470.06"/>
</g>
<!-- 22&#45;&gt;8 -->
<g id="edge24" class="edge">
<title>22&#45;&gt;8</title>
<path fill="none" stroke="grey" stroke-width="2" d="M1074.63,-291.66C1071.74,-290.38 1068.82,-289.13 1066,-288 1031.03,-273.97 990.76,-260.58 959.49,-250.76"/>
<polygon fill="grey" stroke="grey" stroke-width="2" points="960.27,-247.34 949.68,-247.7 958.18,-254.02 960.27,-247.34"/>
</g>
<!-- 23&#45;&gt;8 -->
<g id="edge25" class="edge">
<title>23&#45;&gt;8</title>
<path fill="none" stroke="grey" stroke-width="2" d="M1002.7,-289.46C986.04,-279.98 964.46,-267.7 946.01,-257.2"/>
<polygon fill="grey" stroke="grey" stroke-width="2" points="947.66,-254.12 937.24,-252.21 944.2,-260.2 947.66,-254.12"/>
</g>
<!-- 24 -->
<g id="node25" class="node">
<title>24</title>
<path fill="none" stroke="#d8bc56" stroke-width="2" d="M794,-324C794,-324 746,-324 746,-324 740,-324 734,-318 734,-312 734,-312 734,-300 734,-300 734,-294 740,-288 746,-288 746,-288 794,-288 794,-288 800,-288 806,-294 806,-300 806,-300 806,-312 806,-312 806,-318 800,-324 794,-324"/>
<text text-anchor="middle" x="770" y="-303.5" font-family="sans" font-size="10.00">rename_gff</text>
</g>
<!-- 24&#45;&gt;8 -->
<g id="edge26" class="edge">
<title>24&#45;&gt;8</title>
<path fill="none" stroke="grey" stroke-width="2" d="M803.51,-287.88C821.84,-278.51 844.74,-266.81 864.33,-256.8"/>
<polygon fill="grey" stroke="grey" stroke-width="2" points="866.04,-259.86 873.36,-252.19 862.86,-253.62 866.04,-259.86"/>
</g>
<!-- 25&#45;&gt;8 -->
<g id="edge27" class="edge">
<title>25&#45;&gt;8</title>
<path fill="none" stroke="grey" stroke-width="2" d="M880.54,-431.58C868.76,-401.49 848.85,-338.19 866,-288 869.44,-277.93 875.66,-268.28 882.23,-260.05"/>
<polygon fill="grey" stroke="grey" stroke-width="2" points="885,-262.2 888.83,-252.32 879.68,-257.65 885,-262.2"/>
</g>
<!-- 26&#45;&gt;8 -->
<g id="edge28" class="edge">
<title>26&#45;&gt;8</title>
<path fill="none" stroke="grey" stroke-width="2" d="M907,-287.7C907,-279.98 907,-270.71 907,-262.11"/>
<polygon fill="grey" stroke="grey" stroke-width="2" points="910.5,-262.1 907,-252.1 903.5,-262.1 910.5,-262.1"/>
</g>
<!-- 27&#45;&gt;8 -->
<g id="edge29" class="edge">
<title>27&#45;&gt;8</title>
<path fill="none" stroke="grey" stroke-width="2" d="M1272.86,-503.73C1266.61,-472.79 1250.45,-406.74 1219,-360 1192.11,-320.04 1180.81,-310.07 1138,-288 1081.15,-258.69 1008.17,-245.43 959.61,-239.54"/>
<polygon fill="grey" stroke="grey" stroke-width="2" points="959.97,-236.06 949.63,-238.39 959.17,-243.01 959.97,-236.06"/>
</g>
<!-- 28 -->
<g id="node29" class="node">
<title>28</title>
<path fill="none" stroke="#56d892" stroke-width="2" d="M1159.5,-396C1159.5,-396 912.5,-396 912.5,-396 906.5,-396 900.5,-390 900.5,-384 900.5,-384 900.5,-372 900.5,-372 900.5,-366 906.5,-360 912.5,-360 912.5,-360 1159.5,-360 1159.5,-360 1165.5,-360 1171.5,-366 1171.5,-372 1171.5,-372 1171.5,-384 1171.5,-384 1171.5,-390 1165.5,-396 1159.5,-396"/>
<text text-anchor="middle" x="1036" y="-381" font-family="sans" font-size="10.00">trinotate_db</text>
<text text-anchor="middle" x="1036" y="-370" font-family="sans" font-size="10.00">genome: HS1_Sru_omap1_hap1_HYBRID_SCAFFOLD</text>
</g>
<!-- 28&#45;&gt;8 -->
<g id="edge30" class="edge">
<title>28&#45;&gt;8</title>
<path fill="none" stroke="grey" stroke-width="2" d="M1020.44,-359.87C997.78,-334.92 955.56,-288.45 929.5,-259.77"/>
<polygon fill="grey" stroke="grey" stroke-width="2" points="931.93,-257.24 922.62,-252.19 926.75,-261.94 931.93,-257.24"/>
</g>
<!-- 28&#45;&gt;22 -->
<g id="edge52" class="edge">
<title>28&#45;&gt;22</title>
<path fill="none" stroke="grey" stroke-width="2" d="M1052.31,-359.7C1060.31,-351.22 1070.07,-340.86 1078.82,-331.58"/>
<polygon fill="grey" stroke="grey" stroke-width="2" points="1081.56,-333.78 1085.87,-324.1 1076.47,-328.98 1081.56,-333.78"/>
</g>
<!-- 28&#45;&gt;23 -->
<g id="edge54" class="edge">
<title>28&#45;&gt;23</title>
<path fill="none" stroke="grey" stroke-width="2" d="M1034.52,-359.7C1033.86,-351.98 1033.06,-342.71 1032.32,-334.11"/>
<polygon fill="grey" stroke="grey" stroke-width="2" points="1035.81,-333.77 1031.47,-324.1 1028.83,-334.37 1035.81,-333.77"/>
</g>
<!-- 28&#45;&gt;26 -->
<g id="edge59" class="edge">
<title>28&#45;&gt;26</title>
<path fill="none" stroke="grey" stroke-width="2" d="M1004.44,-359.88C987.34,-350.6 966.02,-339.03 947.68,-329.08"/>
<polygon fill="grey" stroke="grey" stroke-width="2" points="949.14,-325.88 938.68,-324.19 945.8,-332.04 949.14,-325.88"/>
</g>
<!-- 29 -->
<g id="node30" class="node">
<title>29</title>
<path fill="none" stroke="#59d856" stroke-width="2" d="M463.5,-972C463.5,-972 398.5,-972 398.5,-972 392.5,-972 386.5,-966 386.5,-960 386.5,-960 386.5,-948 386.5,-948 386.5,-942 392.5,-936 398.5,-936 398.5,-936 463.5,-936 463.5,-936 469.5,-936 475.5,-942 475.5,-948 475.5,-948 475.5,-960 475.5,-960 475.5,-966 469.5,-972 463.5,-972"/>
<text text-anchor="middle" x="431" y="-951.5" font-family="sans" font-size="10.00">repeat_masker</text>
</g>
<!-- 29&#45;&gt;9 -->
<g id="edge31" class="edge">
<title>29&#45;&gt;9</title>
<path fill="none" stroke="grey" stroke-width="2" d="M448.04,-935.76C456.75,-926.02 466.8,-913.17 473,-900 490.24,-863.41 492,-851.45 492,-811 492,-811 492,-811 492,-737 492,-697 492,-650.65 492,-622.08"/>
<polygon fill="grey" stroke="grey" stroke-width="2" points="495.5,-622.05 492,-612.05 488.5,-622.05 495.5,-622.05"/>
</g>
<!-- 30 -->
<g id="node31" class="node">
<title>30</title>
<path fill="none" stroke="#ced856" stroke-width="2" d="M341,-756C341,-756 311,-756 311,-756 305,-756 299,-750 299,-744 299,-744 299,-732 299,-732 299,-726 305,-720 311,-720 311,-720 341,-720 341,-720 347,-720 353,-726 353,-732 353,-732 353,-744 353,-744 353,-750 347,-756 341,-756"/>
<text text-anchor="middle" x="326" y="-735.5" font-family="sans" font-size="10.00">braker</text>
</g>
<!-- 29&#45;&gt;30 -->
<g id="edge62" class="edge">
<title>29&#45;&gt;30</title>
<path fill="none" stroke="grey" stroke-width="2" d="M410.61,-935.82C399.93,-926.1 387.21,-913.25 378,-900 349.25,-858.65 335.69,-800.48 329.86,-766.56"/>
<polygon fill="grey" stroke="grey" stroke-width="2" points="333.28,-765.77 328.23,-756.45 326.37,-766.88 333.28,-765.77"/>
</g>
<!-- 38 -->
<g id="node39" class="node">
<title>38</title>
<path fill="none" stroke="#d8cb56" stroke-width="2" d="M397.5,-828C397.5,-828 366.5,-828 366.5,-828 360.5,-828 354.5,-822 354.5,-816 354.5,-816 354.5,-804 354.5,-804 354.5,-798 360.5,-792 366.5,-792 366.5,-792 397.5,-792 397.5,-792 403.5,-792 409.5,-798 409.5,-804 409.5,-804 409.5,-816 409.5,-816 409.5,-822 403.5,-828 397.5,-828"/>
<text text-anchor="middle" x="382" y="-807.5" font-family="sans" font-size="10.00">prothint</text>
</g>
<!-- 29&#45;&gt;38 -->
<g id="edge73" class="edge">
<title>29&#45;&gt;38</title>
<path fill="none" stroke="grey" stroke-width="2" d="M412.83,-935.6C404.02,-925.99 394.24,-913.33 389,-900 381.27,-880.32 379.79,-856.33 380.1,-838.22"/>
<polygon fill="grey" stroke="grey" stroke-width="2" points="383.6,-838.17 380.46,-828.06 376.6,-837.92 383.6,-838.17"/>
</g>
<!-- 43 -->
<g id="node44" class="node">
<title>43</title>
<path fill="none" stroke="#566bd8" stroke-width="2" d="M452,-900C452,-900 410,-900 410,-900 404,-900 398,-894 398,-888 398,-888 398,-876 398,-876 398,-870 404,-864 410,-864 410,-864 452,-864 452,-864 458,-864 464,-870 464,-876 464,-876 464,-888 464,-888 464,-894 458,-900 452,-900"/>
<text text-anchor="middle" x="431" y="-879.5" font-family="sans" font-size="10.00">genemark</text>
</g>
<!-- 29&#45;&gt;43 -->
<g id="edge80" class="edge">
<title>29&#45;&gt;43</title>
<path fill="none" stroke="grey" stroke-width="2" d="M431,-935.7C431,-927.98 431,-918.71 431,-910.11"/>
<polygon fill="grey" stroke="grey" stroke-width="2" points="434.5,-910.1 431,-900.1 427.5,-910.1 434.5,-910.1"/>
</g>
<!-- 30&#45;&gt;10 -->
<g id="edge33" class="edge">
<title>30&#45;&gt;10</title>
<path fill="none" stroke="grey" stroke-width="2" d="M322.79,-719.7C321.35,-711.98 319.63,-702.71 318.04,-694.11"/>
<polygon fill="grey" stroke="grey" stroke-width="2" points="321.44,-693.3 316.18,-684.1 314.56,-694.58 321.44,-693.3"/>
</g>
<!-- 31 -->
<g id="node32" class="node">
<title>31</title>
<path fill="none" stroke="#d8a456" stroke-width="2" d="M146,-396C146,-396 116,-396 116,-396 110,-396 104,-390 104,-384 104,-384 104,-372 104,-372 104,-366 110,-360 116,-360 116,-360 146,-360 146,-360 152,-360 158,-366 158,-372 158,-372 158,-384 158,-384 158,-390 152,-396 146,-396"/>
<text text-anchor="middle" x="131" y="-375.5" font-family="sans" font-size="10.00">signalp</text>
</g>
<!-- 31&#45;&gt;14 -->
<g id="edge40" class="edge">
<title>31&#45;&gt;14</title>
<path fill="none" stroke="grey" stroke-width="2" d="M128.78,-359.7C127.78,-351.98 126.59,-342.71 125.49,-334.11"/>
<polygon fill="grey" stroke="grey" stroke-width="2" points="128.95,-333.58 124.2,-324.1 122,-334.47 128.95,-333.58"/>
</g>
<!-- 32&#45;&gt;14 -->
<g id="edge41" class="edge">
<title>32&#45;&gt;14</title>
<path fill="none" stroke="grey" stroke-width="2" d="M114.82,-431.7C107.27,-421.94 98.93,-409.1 95,-396 90.4,-380.68 91.27,-375.56 95,-360 97.21,-350.81 101.29,-341.41 105.62,-333.13"/>
<polygon fill="grey" stroke="grey" stroke-width="2" points="108.72,-334.77 110.53,-324.33 102.6,-331.36 108.72,-334.77"/>
</g>
<!-- 32&#45;&gt;31 -->
<g id="edge64" class="edge">
<title>32&#45;&gt;31</title>
<path fill="none" stroke="grey" stroke-width="2" d="M130.25,-431.7C130.36,-423.98 130.49,-414.71 130.61,-406.11"/>
<polygon fill="grey" stroke="grey" stroke-width="2" points="134.11,-406.15 130.76,-396.1 127.11,-406.05 134.11,-406.15"/>
</g>
<!-- 33 -->
<g id="node34" class="node">
<title>33</title>
<path fill="none" stroke="#59d856" stroke-width="2" d="M944.5,-972C944.5,-972 879.5,-972 879.5,-972 873.5,-972 867.5,-966 867.5,-960 867.5,-960 867.5,-948 867.5,-948 867.5,-942 873.5,-936 879.5,-936 879.5,-936 944.5,-936 944.5,-936 950.5,-936 956.5,-942 956.5,-948 956.5,-948 956.5,-960 956.5,-960 956.5,-966 950.5,-972 944.5,-972"/>
<text text-anchor="middle" x="912" y="-951.5" font-family="sans" font-size="10.00">repeat_masker</text>
</g>
<!-- 33&#45;&gt;19 -->
<g id="edge46" class="edge">
<title>33&#45;&gt;19</title>
<path fill="none" stroke="grey" stroke-width="2" d="M956.56,-946.47C1024.46,-933.73 1146,-898.67 1146,-811 1146,-811 1146,-811 1146,-737 1146,-693.91 1168.6,-648.26 1185.08,-620.7"/>
<polygon fill="grey" stroke="grey" stroke-width="2" points="1188.13,-622.42 1190.4,-612.07 1182.17,-618.75 1188.13,-622.42"/>
</g>
<!-- 34 -->
<g id="node35" class="node">
<title>34</title>
<path fill="none" stroke="#ced856" stroke-width="2" d="M917,-756C917,-756 887,-756 887,-756 881,-756 875,-750 875,-744 875,-744 875,-732 875,-732 875,-726 881,-720 887,-720 887,-720 917,-720 917,-720 923,-720 929,-726 929,-732 929,-732 929,-744 929,-744 929,-750 923,-756 917,-756"/>
<text text-anchor="middle" x="902" y="-735.5" font-family="sans" font-size="10.00">braker</text>
</g>
<!-- 33&#45;&gt;34 -->
<g id="edge67" class="edge">
<title>33&#45;&gt;34</title>
<path fill="none" stroke="grey" stroke-width="2" d="M907.92,-935.65C901.48,-906.18 890.06,-844.45 894,-792 894.64,-783.52 895.84,-774.34 897.12,-766.04"/>
<polygon fill="grey" stroke="grey" stroke-width="2" points="900.58,-766.55 898.75,-756.11 893.68,-765.41 900.58,-766.55"/>
</g>
<!-- 40 -->
<g id="node41" class="node">
<title>40</title>
<path fill="none" stroke="#d8cb56" stroke-width="2" d="M945.5,-828C945.5,-828 914.5,-828 914.5,-828 908.5,-828 902.5,-822 902.5,-816 902.5,-816 902.5,-804 902.5,-804 902.5,-798 908.5,-792 914.5,-792 914.5,-792 945.5,-792 945.5,-792 951.5,-792 957.5,-798 957.5,-804 957.5,-804 957.5,-816 957.5,-816 957.5,-822 951.5,-828 945.5,-828"/>
<text text-anchor="middle" x="930" y="-807.5" font-family="sans" font-size="10.00">prothint</text>
</g>
<!-- 33&#45;&gt;40 -->
<g id="edge77" class="edge">
<title>33&#45;&gt;40</title>
<path fill="none" stroke="grey" stroke-width="2" d="M914.17,-935.87C917.24,-911.67 922.87,-867.21 926.53,-838.39"/>
<polygon fill="grey" stroke="grey" stroke-width="2" points="930.04,-838.55 927.82,-828.19 923.09,-837.67 930.04,-838.55"/>
</g>
<!-- 45 -->
<g id="node46" class="node">
<title>45</title>
<path fill="none" stroke="#566bd8" stroke-width="2" d="M994,-900C994,-900 952,-900 952,-900 946,-900 940,-894 940,-888 940,-888 940,-876 940,-876 940,-870 946,-864 952,-864 952,-864 994,-864 994,-864 1000,-864 1006,-870 1006,-876 1006,-876 1006,-888 1006,-888 1006,-894 1000,-900 994,-900"/>
<text text-anchor="middle" x="973" y="-879.5" font-family="sans" font-size="10.00">genemark</text>
</g>
<!-- 33&#45;&gt;45 -->
<g id="edge82" class="edge">
<title>33&#45;&gt;45</title>
<path fill="none" stroke="grey" stroke-width="2" d="M927.08,-935.7C934.39,-927.3 943.31,-917.07 951.34,-907.86"/>
<polygon fill="grey" stroke="grey" stroke-width="2" points="954.16,-909.94 958.09,-900.1 948.89,-905.34 954.16,-909.94"/>
</g>
<!-- 34&#45;&gt;20 -->
<g id="edge48" class="edge">
<title>34&#45;&gt;20</title>
<path fill="none" stroke="grey" stroke-width="2" d="M902,-719.7C902,-711.98 902,-702.71 902,-694.11"/>
<polygon fill="grey" stroke="grey" stroke-width="2" points="905.5,-694.1 902,-684.1 898.5,-694.1 905.5,-694.1"/>
</g>
<!-- 35 -->
<g id="node36" class="node">
<title>35</title>
<path fill="none" stroke="#d8a456" stroke-width="2" d="M794,-396C794,-396 764,-396 764,-396 758,-396 752,-390 752,-384 752,-384 752,-372 752,-372 752,-366 758,-360 764,-360 764,-360 794,-360 794,-360 800,-360 806,-366 806,-372 806,-372 806,-384 806,-384 806,-390 800,-396 794,-396"/>
<text text-anchor="middle" x="779" y="-375.5" font-family="sans" font-size="10.00">signalp</text>
</g>
<!-- 35&#45;&gt;24 -->
<g id="edge55" class="edge">
<title>35&#45;&gt;24</title>
<path fill="none" stroke="grey" stroke-width="2" d="M776.78,-359.7C775.78,-351.98 774.59,-342.71 773.49,-334.11"/>
<polygon fill="grey" stroke="grey" stroke-width="2" points="776.95,-333.58 772.2,-324.1 770,-334.47 776.95,-333.58"/>
</g>
<!-- 36&#45;&gt;24 -->
<g id="edge56" class="edge">
<title>36&#45;&gt;24</title>
<path fill="none" stroke="grey" stroke-width="2" d="M762.82,-431.7C755.27,-421.94 746.93,-409.1 743,-396 738.4,-380.68 739.27,-375.56 743,-360 745.21,-350.81 749.29,-341.41 753.62,-333.13"/>
<polygon fill="grey" stroke="grey" stroke-width="2" points="756.72,-334.77 758.53,-324.33 750.6,-331.36 756.72,-334.77"/>
</g>
<!-- 36&#45;&gt;35 -->
<g id="edge69" class="edge">
<title>36&#45;&gt;35</title>
<path fill="none" stroke="grey" stroke-width="2" d="M778.25,-431.7C778.36,-423.98 778.49,-414.71 778.61,-406.11"/>
<polygon fill="grey" stroke="grey" stroke-width="2" points="782.11,-406.15 778.76,-396.1 775.11,-406.05 782.11,-406.15"/>
</g>
<!-- 37 -->
<g id="node38" class="node">
<title>37</title>
<path fill="none" stroke="#68d856" stroke-width="2" d="M545.5,-1044C545.5,-1044 492.5,-1044 492.5,-1044 486.5,-1044 480.5,-1038 480.5,-1032 480.5,-1032 480.5,-1020 480.5,-1020 480.5,-1014 486.5,-1008 492.5,-1008 492.5,-1008 545.5,-1008 545.5,-1008 551.5,-1008 557.5,-1014 557.5,-1020 557.5,-1020 557.5,-1032 557.5,-1032 557.5,-1038 551.5,-1044 545.5,-1044"/>
<text text-anchor="middle" x="519" y="-1023.5" font-family="sans" font-size="10.00">join_repeats</text>
</g>
<!-- 37&#45;&gt;29 -->
<g id="edge61" class="edge">
<title>37&#45;&gt;29</title>
<path fill="none" stroke="grey" stroke-width="2" d="M497.25,-1007.7C486.16,-998.88 472.53,-988.03 460.51,-978.47"/>
<polygon fill="grey" stroke="grey" stroke-width="2" points="462.51,-975.59 452.5,-972.1 458.15,-981.07 462.51,-975.59"/>
</g>
<!-- 38&#45;&gt;30 -->
<g id="edge63" class="edge">
<title>38&#45;&gt;30</title>
<path fill="none" stroke="grey" stroke-width="2" d="M368.16,-791.7C361.51,-783.39 353.42,-773.28 346.11,-764.14"/>
<polygon fill="grey" stroke="grey" stroke-width="2" points="348.66,-761.73 339.68,-756.1 343.2,-766.1 348.66,-761.73"/>
</g>
<!-- 39 -->
<g id="node40" class="node">
<title>39</title>
<path fill="none" stroke="#68d856" stroke-width="2" d="M893.5,-1044C893.5,-1044 840.5,-1044 840.5,-1044 834.5,-1044 828.5,-1038 828.5,-1032 828.5,-1032 828.5,-1020 828.5,-1020 828.5,-1014 834.5,-1008 840.5,-1008 840.5,-1008 893.5,-1008 893.5,-1008 899.5,-1008 905.5,-1014 905.5,-1020 905.5,-1020 905.5,-1032 905.5,-1032 905.5,-1038 899.5,-1044 893.5,-1044"/>
<text text-anchor="middle" x="867" y="-1023.5" font-family="sans" font-size="10.00">join_repeats</text>
</g>
<!-- 39&#45;&gt;33 -->
<g id="edge66" class="edge">
<title>39&#45;&gt;33</title>
<path fill="none" stroke="grey" stroke-width="2" d="M878.12,-1007.7C883.36,-999.56 889.7,-989.69 895.48,-980.7"/>
<polygon fill="grey" stroke="grey" stroke-width="2" points="898.54,-982.41 901,-972.1 892.65,-978.62 898.54,-982.41"/>
</g>
<!-- 40&#45;&gt;34 -->
<g id="edge68" class="edge">
<title>40&#45;&gt;34</title>
<path fill="none" stroke="grey" stroke-width="2" d="M923.08,-791.7C919.93,-783.81 916.12,-774.3 912.62,-765.55"/>
<polygon fill="grey" stroke="grey" stroke-width="2" points="915.81,-764.09 908.84,-756.1 909.31,-766.69 915.81,-764.09"/>
</g>
<!-- 41 -->
<g id="node42" class="node">
<title>41</title>
<path fill="none" stroke="#b6d856" stroke-width="2" d="M731.5,-1116C731.5,-1116 654.5,-1116 654.5,-1116 648.5,-1116 642.5,-1110 642.5,-1104 642.5,-1104 642.5,-1092 642.5,-1092 642.5,-1086 648.5,-1080 654.5,-1080 654.5,-1080 731.5,-1080 731.5,-1080 737.5,-1080 743.5,-1086 743.5,-1092 743.5,-1092 743.5,-1104 743.5,-1104 743.5,-1110 737.5,-1116 731.5,-1116"/>
<text text-anchor="middle" x="693" y="-1095.5" font-family="sans" font-size="10.00">te_class_repbase</text>
</g>
<!-- 41&#45;&gt;37 -->
<g id="edge71" class="edge">
<title>41&#45;&gt;37</title>
<path fill="none" stroke="grey" stroke-width="2" d="M650.43,-1079.88C625.17,-1069.71 593.06,-1056.79 566.91,-1046.27"/>
<polygon fill="grey" stroke="grey" stroke-width="2" points="568.15,-1043 557.56,-1042.51 565.54,-1049.49 568.15,-1043"/>
</g>
<!-- 41&#45;&gt;39 -->
<g id="edge75" class="edge">
<title>41&#45;&gt;39</title>
<path fill="none" stroke="grey" stroke-width="2" d="M735.57,-1079.88C760.83,-1069.71 792.94,-1056.79 819.09,-1046.27"/>
<polygon fill="grey" stroke="grey" stroke-width="2" points="820.46,-1049.49 828.44,-1042.51 817.85,-1043 820.46,-1049.49"/>
</g>
<!-- 42 -->
<g id="node43" class="node">
<title>42</title>
<path fill="none" stroke="#56d0d8" stroke-width="2" d="M556,-1116C556,-1116 482,-1116 482,-1116 476,-1116 470,-1110 470,-1104 470,-1104 470,-1092 470,-1092 470,-1086 476,-1080 482,-1080 482,-1080 556,-1080 556,-1080 562,-1080 568,-1086 568,-1092 568,-1092 568,-1104 568,-1104 568,-1110 562,-1116 556,-1116"/>
<text text-anchor="middle" x="519" y="-1095.5" font-family="sans" font-size="10.00">te_class_denovo</text>
</g>
<!-- 42&#45;&gt;37 -->
<g id="edge72" class="edge">
<title>42&#45;&gt;37</title>
<path fill="none" stroke="grey" stroke-width="2" d="M519,-1079.7C519,-1071.98 519,-1062.71 519,-1054.11"/>
<polygon fill="grey" stroke="grey" stroke-width="2" points="522.5,-1054.1 519,-1044.1 515.5,-1054.1 522.5,-1054.1"/>
</g>
<!-- 43&#45;&gt;38 -->
<g id="edge74" class="edge">
<title>43&#45;&gt;38</title>
<path fill="none" stroke="grey" stroke-width="2" d="M418.89,-863.7C413.13,-855.47 406.14,-845.48 399.79,-836.42"/>
<polygon fill="grey" stroke="grey" stroke-width="2" points="402.58,-834.29 393.97,-828.1 396.84,-838.3 402.58,-834.29"/>
</g>
<!-- 44 -->
<g id="node45" class="node">
<title>44</title>
<path fill="none" stroke="#56d0d8" stroke-width="2" d="M904,-1116C904,-1116 830,-1116 830,-1116 824,-1116 818,-1110 818,-1104 818,-1104 818,-1092 818,-1092 818,-1086 824,-1080 830,-1080 830,-1080 904,-1080 904,-1080 910,-1080 916,-1086 916,-1092 916,-1092 916,-1104 916,-1104 916,-1110 910,-1116 904,-1116"/>
<text text-anchor="middle" x="867" y="-1095.5" font-family="sans" font-size="10.00">te_class_denovo</text>
</g>
<!-- 44&#45;&gt;39 -->
<g id="edge76" class="edge">
<title>44&#45;&gt;39</title>
<path fill="none" stroke="grey" stroke-width="2" d="M867,-1079.7C867,-1071.98 867,-1062.71 867,-1054.11"/>
<polygon fill="grey" stroke="grey" stroke-width="2" points="870.5,-1054.1 867,-1044.1 863.5,-1054.1 870.5,-1054.1"/>
</g>
<!-- 45&#45;&gt;40 -->
<g id="edge78" class="edge">
<title>45&#45;&gt;40</title>
<path fill="none" stroke="grey" stroke-width="2" d="M962.37,-863.7C957.37,-855.56 951.31,-845.69 945.79,-836.7"/>
<polygon fill="grey" stroke="grey" stroke-width="2" points="948.72,-834.79 940.51,-828.1 942.76,-838.46 948.72,-834.79"/>
</g>
<!-- 46 -->
<g id="node47" class="node">
<title>46</title>
<path fill="none" stroke="#56d87b" stroke-width="2" d="M555.5,-1188C555.5,-1188 482.5,-1188 482.5,-1188 476.5,-1188 470.5,-1182 470.5,-1176 470.5,-1176 470.5,-1164 470.5,-1164 470.5,-1158 476.5,-1152 482.5,-1152 482.5,-1152 555.5,-1152 555.5,-1152 561.5,-1152 567.5,-1158 567.5,-1164 567.5,-1164 567.5,-1176 567.5,-1176 567.5,-1182 561.5,-1188 555.5,-1188"/>
<text text-anchor="middle" x="519" y="-1167.5" font-family="sans" font-size="10.00">repeat_classifier</text>
</g>
<!-- 46&#45;&gt;42 -->
<g id="edge79" class="edge">
<title>46&#45;&gt;42</title>
<path fill="none" stroke="grey" stroke-width="2" d="M519,-1151.7C519,-1143.98 519,-1134.71 519,-1126.11"/>
<polygon fill="grey" stroke="grey" stroke-width="2" points="522.5,-1126.1 519,-1116.1 515.5,-1126.1 522.5,-1126.1"/>
</g>
<!-- 47 -->
<g id="node48" class="node">
<title>47</title>
<path fill="none" stroke="#56d87b" stroke-width="2" d="M903.5,-1188C903.5,-1188 830.5,-1188 830.5,-1188 824.5,-1188 818.5,-1182 818.5,-1176 818.5,-1176 818.5,-1164 818.5,-1164 818.5,-1158 824.5,-1152 830.5,-1152 830.5,-1152 903.5,-1152 903.5,-1152 909.5,-1152 915.5,-1158 915.5,-1164 915.5,-1164 915.5,-1176 915.5,-1176 915.5,-1182 909.5,-1188 903.5,-1188"/>
<text text-anchor="middle" x="867" y="-1167.5" font-family="sans" font-size="10.00">repeat_classifier</text>
</g>
<!-- 47&#45;&gt;44 -->
<g id="edge81" class="edge">
<title>47&#45;&gt;44</title>
<path fill="none" stroke="grey" stroke-width="2" d="M867,-1151.7C867,-1143.98 867,-1134.71 867,-1126.11"/>
<polygon fill="grey" stroke="grey" stroke-width="2" points="870.5,-1126.1 867,-1116.1 863.5,-1126.1 870.5,-1126.1"/>
</g>
<!-- 48 -->
<g id="node49" class="node">
<title>48</title>
<path fill="none" stroke="#d86e56" stroke-width="2" d="M610,-1260C610,-1260 428,-1260 428,-1260 422,-1260 416,-1254 416,-1248 416,-1248 416,-1236 416,-1236 416,-1230 422,-1224 428,-1224 428,-1224 610,-1224 610,-1224 616,-1224 622,-1230 622,-1236 622,-1236 622,-1248 622,-1248 622,-1254 616,-1260 610,-1260"/>
<text text-anchor="middle" x="519" y="-1245" font-family="sans" font-size="10.00">repeat_modeler</text>
<text text-anchor="middle" x="519" y="-1234" font-family="sans" font-size="10.00">genome: Dgu_HS1_HYBRID_SCAFFOLD</text>
</g>
<!-- 48&#45;&gt;46 -->
<g id="edge83" class="edge">
<title>48&#45;&gt;46</title>
<path fill="none" stroke="grey" stroke-width="2" d="M519,-1223.7C519,-1215.98 519,-1206.71 519,-1198.11"/>
<polygon fill="grey" stroke="grey" stroke-width="2" points="522.5,-1198.1 519,-1188.1 515.5,-1198.1 522.5,-1198.1"/>
</g>
<!-- 49 -->
<g id="node50" class="node">
<title>49</title>
<path fill="none" stroke="#d86e56" stroke-width="2" d="M990.5,-1260C990.5,-1260 743.5,-1260 743.5,-1260 737.5,-1260 731.5,-1254 731.5,-1248 731.5,-1248 731.5,-1236 731.5,-1236 731.5,-1230 737.5,-1224 743.5,-1224 743.5,-1224 990.5,-1224 990.5,-1224 996.5,-1224 1002.5,-1230 1002.5,-1236 1002.5,-1236 1002.5,-1248 1002.5,-1248 1002.5,-1254 996.5,-1260 990.5,-1260"/>
<text text-anchor="middle" x="867" y="-1245" font-family="sans" font-size="10.00">repeat_modeler</text>
<text text-anchor="middle" x="867" y="-1234" font-family="sans" font-size="10.00">genome: HS1_Sru_omap1_hap1_HYBRID_SCAFFOLD</text>
</g>
<!-- 49&#45;&gt;47 -->
<g id="edge84" class="edge">
<title>49&#45;&gt;47</title>
<path fill="none" stroke="grey" stroke-width="2" d="M867,-1223.7C867,-1215.98 867,-1206.71 867,-1198.11"/>
<polygon fill="grey" stroke="grey" stroke-width="2" points="870.5,-1198.1 867,-1188.1 863.5,-1198.1 870.5,-1198.1"/>
</g>
</g>
</svg>
