<?xml version="1.0" encoding="UTF-8" standalone="no"?>
<!DOCTYPE svg PUBLIC "-//W3C//DTD SVG 1.1//EN"
 "http://www.w3.org/Graphics/SVG/1.1/DTD/svg11.dtd">
<!-- Generated by graphviz version 2.43.0 (0)
 -->
<!-- Title: snakemake_dag Pages: 1 -->
<svg width="214pt" height="188pt"
 viewBox="0.00 0.00 214.00 188.00" xmlns="http://www.w3.org/2000/svg" xmlns:xlink="http://www.w3.org/1999/xlink">
<g id="graph0" class="graph" transform="scale(1 1) rotate(0) translate(4 184)">
<title>snakemake_dag</title>
<polygon fill="white" stroke="transparent" points="-4,4 -4,-184 210,-184 210,4 -4,4"/>
<!-- 0 -->
<g id="node1" class="node">
<title>0</title>
<path fill="none" stroke="#56d8a9" stroke-width="2" d="M118,-36C118,-36 88,-36 88,-36 82,-36 76,-30 76,-24 76,-24 76,-12 76,-12 76,-6 82,0 88,0 88,0 118,0 118,0 124,0 130,-6 130,-12 130,-12 130,-24 130,-24 130,-30 124,-36 118,-36"/>
<text text-anchor="middle" x="103" y="-15.5" font-family="sans" font-size="10.00">all</text>
</g>
<!-- 1 -->
<g id="node2" class="node">
<title>1</title>
<path fill="none" stroke="#afd856" stroke-width="2" d="M127,-108C127,-108 79,-108 79,-108 73,-108 67,-102 67,-96 67,-96 67,-84 67,-84 67,-78 73,-72 79,-72 79,-72 127,-72 127,-72 133,-72 139,-78 139,-84 139,-84 139,-96 139,-96 139,-102 133,-108 127,-108"/>
<text text-anchor="middle" x="103" y="-87.5" font-family="sans" font-size="10.00">braker_prot</text>
</g>
<!-- 1&#45;&gt;0 -->
<g id="edge1" class="edge">
<title>1&#45;&gt;0</title>
<path fill="none" stroke="grey" stroke-width="2" d="M103,-71.7C103,-63.98 103,-54.71 103,-46.11"/>
<polygon fill="grey" stroke="grey" stroke-width="2" points="106.5,-46.1 103,-36.1 99.5,-46.1 106.5,-46.1"/>
</g>
<!-- 2 -->
<g id="node3" class="node">
<title>2</title>
<path fill="none" stroke="#d85656" stroke-width="2" d="M194,-180C194,-180 12,-180 12,-180 6,-180 0,-174 0,-168 0,-168 0,-156 0,-156 0,-150 6,-144 12,-144 12,-144 194,-144 194,-144 200,-144 206,-150 206,-156 206,-156 206,-168 206,-168 206,-174 200,-180 194,-180"/>
<text text-anchor="middle" x="103" y="-165" font-family="sans" font-size="10.00">repeat_masker</text>
<text text-anchor="middle" x="103" y="-154" font-family="sans" font-size="10.00">genome: Dgu_HS1_HYBRID_SCAFFOLD</text>
</g>
<!-- 2&#45;&gt;1 -->
<g id="edge2" class="edge">
<title>2&#45;&gt;1</title>
<path fill="none" stroke="grey" stroke-width="2" d="M103,-143.7C103,-135.98 103,-126.71 103,-118.11"/>
<polygon fill="grey" stroke="grey" stroke-width="2" points="106.5,-118.1 103,-108.1 99.5,-118.1 106.5,-118.1"/>
</g>
</g>
</svg>
