<?xml version="1.0" encoding="UTF-8" standalone="no"?>
<!DOCTYPE svg PUBLIC "-//W3C//DTD SVG 1.1//EN"
 "http://www.w3.org/Graphics/SVG/1.1/DTD/svg11.dtd">
<!-- Generated by graphviz version 2.43.0 (0)
 -->
<!-- Title: snakemake_dag Pages: 1 -->
<svg width="1018pt" height="116pt"
 viewBox="0.00 0.00 1017.50 116.00" xmlns="http://www.w3.org/2000/svg" xmlns:xlink="http://www.w3.org/1999/xlink">
<g id="graph0" class="graph" transform="scale(1 1) rotate(0) translate(4 112)">
<title>snakemake_dag</title>
<polygon fill="white" stroke="transparent" points="-4,4 -4,-112 1013.5,-112 1013.5,4 -4,4"/>
<!-- 0 -->
<g id="node1" class="node">
<title>0</title>
<path fill="none" stroke="#d85656" stroke-width="2" d="M503,-36C503,-36 473,-36 473,-36 467,-36 461,-30 461,-24 461,-24 461,-12 461,-12 461,-6 467,0 473,0 473,0 503,0 503,0 509,0 515,-6 515,-12 515,-12 515,-24 515,-24 515,-30 509,-36 503,-36"/>
<text text-anchor="middle" x="488" y="-15.5" font-family="sans" font-size="10.00">all</text>
</g>
<!-- 1 -->
<g id="node2" class="node">
<title>1</title>
<path fill="none" stroke="#d6d856" stroke-width="2" d="M194,-108C194,-108 12,-108 12,-108 6,-108 0,-102 0,-96 0,-96 0,-84 0,-84 0,-78 6,-72 12,-72 12,-72 194,-72 194,-72 200,-72 206,-78 206,-84 206,-84 206,-96 206,-96 206,-102 200,-108 194,-108"/>
<text text-anchor="middle" x="103" y="-93" font-family="sans" font-size="10.00">repeat_masker</text>
<text text-anchor="middle" x="103" y="-82" font-family="sans" font-size="10.00">genome: Dgu_HS1_HYBRID_SCAFFOLD</text>
</g>
<!-- 1&#45;&gt;0 -->
<g id="edge1" class="edge">
<title>1&#45;&gt;0</title>
<path fill="none" stroke="grey" stroke-width="2" d="M196.69,-71.97C278.37,-57.11 392.61,-36.34 450.78,-25.77"/>
<polygon fill="grey" stroke="grey" stroke-width="2" points="451.42,-29.21 460.63,-23.98 450.17,-22.32 451.42,-29.21"/>
</g>
<!-- 2 -->
<g id="node3" class="node">
<title>2</title>
<path fill="none" stroke="#d6d856" stroke-width="2" d="M483.5,-108C483.5,-108 236.5,-108 236.5,-108 230.5,-108 224.5,-102 224.5,-96 224.5,-96 224.5,-84 224.5,-84 224.5,-78 230.5,-72 236.5,-72 236.5,-72 483.5,-72 483.5,-72 489.5,-72 495.5,-78 495.5,-84 495.5,-84 495.5,-96 495.5,-96 495.5,-102 489.5,-108 483.5,-108"/>
<text text-anchor="middle" x="360" y="-93" font-family="sans" font-size="10.00">repeat_masker</text>
<text text-anchor="middle" x="360" y="-82" font-family="sans" font-size="10.00">genome: HS1_Sru_omap1_hap1_HYBRID_SCAFFOLD</text>
</g>
<!-- 2&#45;&gt;0 -->
<g id="edge2" class="edge">
<title>2&#45;&gt;0</title>
<path fill="none" stroke="grey" stroke-width="2" d="M391.31,-71.88C409.63,-61.86 432.83,-49.17 451.92,-38.73"/>
<polygon fill="grey" stroke="grey" stroke-width="2" points="453.82,-41.68 460.91,-33.81 450.46,-35.54 453.82,-41.68"/>
</g>
<!-- 3 -->
<g id="node4" class="node">
<title>3</title>
<path fill="none" stroke="#59d856" stroke-width="2" d="M708,-108C708,-108 526,-108 526,-108 520,-108 514,-102 514,-96 514,-96 514,-84 514,-84 514,-78 520,-72 526,-72 526,-72 708,-72 708,-72 714,-72 720,-78 720,-84 720,-84 720,-96 720,-96 720,-102 714,-108 708,-108"/>
<text text-anchor="middle" x="617" y="-93" font-family="sans" font-size="10.00">repeat_modeler</text>
<text text-anchor="middle" x="617" y="-82" font-family="sans" font-size="10.00">genome: Dgu_HS1_HYBRID_SCAFFOLD</text>
</g>
<!-- 3&#45;&gt;0 -->
<g id="edge3" class="edge">
<title>3&#45;&gt;0</title>
<path fill="none" stroke="grey" stroke-width="2" d="M585.44,-71.88C566.9,-61.81 543.39,-49.05 524.1,-38.59"/>
<polygon fill="grey" stroke="grey" stroke-width="2" points="525.76,-35.51 515.3,-33.81 522.42,-41.66 525.76,-35.51"/>
</g>
<!-- 4 -->
<g id="node5" class="node">
<title>4</title>
<path fill="none" stroke="#59d856" stroke-width="2" d="M997.5,-108C997.5,-108 750.5,-108 750.5,-108 744.5,-108 738.5,-102 738.5,-96 738.5,-96 738.5,-84 738.5,-84 738.5,-78 744.5,-72 750.5,-72 750.5,-72 997.5,-72 997.5,-72 1003.5,-72 1009.5,-78 1009.5,-84 1009.5,-84 1009.5,-96 1009.5,-96 1009.5,-102 1003.5,-108 997.5,-108"/>
<text text-anchor="middle" x="874" y="-93" font-family="sans" font-size="10.00">repeat_modeler</text>
<text text-anchor="middle" x="874" y="-82" font-family="sans" font-size="10.00">genome: HS1_Sru_omap1_hap1_HYBRID_SCAFFOLD</text>
</g>
<!-- 4&#45;&gt;0 -->
<g id="edge4" class="edge">
<title>4&#45;&gt;0</title>
<path fill="none" stroke="grey" stroke-width="2" d="M780.07,-71.97C697.97,-57.08 583.05,-36.24 524.87,-25.69"/>
<polygon fill="grey" stroke="grey" stroke-width="2" points="525.49,-22.24 515.02,-23.9 524.24,-29.13 525.49,-22.24"/>
</g>
</g>
</svg>
