<?xml version="1.0" encoding="UTF-8" standalone="no"?>
<!DOCTYPE svg PUBLIC "-//W3C//DTD SVG 1.1//EN"
 "http://www.w3.org/Graphics/SVG/1.1/DTD/svg11.dtd">
<!-- Generated by graphviz version 2.43.0 (0)
 -->
<!-- Title: snakemake_dag Pages: 1 -->
<svg width="1345pt" height="1196pt"
 viewBox="0.00 0.00 1344.55 1196.00" xmlns="http://www.w3.org/2000/svg" xmlns:xlink="http://www.w3.org/1999/xlink">
<g id="graph0" class="graph" transform="scale(1 1) rotate(0) translate(4 1192)">
<title>snakemake_dag</title>
<polygon fill="white" stroke="transparent" points="-4,4 -4,-1192 1340.55,-1192 1340.55,4 -4,4"/>
<!-- 0 -->
<g id="node1" class="node">
<title>0</title>
<path fill="none" stroke="#56a9d8" stroke-width="2" d="M611,-36C611,-36 581,-36 581,-36 575,-36 569,-30 569,-24 569,-24 569,-12 569,-12 569,-6 575,0 581,0 581,0 611,0 611,0 617,0 623,-6 623,-12 623,-12 623,-24 623,-24 623,-30 617,-36 611,-36"/>
<text text-anchor="middle" x="596" y="-15.5" font-family="sans" font-size="10.00">all</text>
</g>
<!-- 1 -->
<g id="node2" class="node">
<title>1</title>
<path fill="none" stroke="#97d856" stroke-width="2" d="M575.5,-108C575.5,-108 506.5,-108 506.5,-108 500.5,-108 494.5,-102 494.5,-96 494.5,-96 494.5,-84 494.5,-84 494.5,-78 500.5,-72 506.5,-72 506.5,-72 575.5,-72 575.5,-72 581.5,-72 587.5,-78 587.5,-84 587.5,-84 587.5,-96 587.5,-96 587.5,-102 581.5,-108 575.5,-108"/>
<text text-anchor="middle" x="541" y="-87.5" font-family="sans" font-size="10.00">trinotate_report</text>
</g>
<!-- 1&#45;&gt;0 -->
<g id="edge1" class="edge">
<title>1&#45;&gt;0</title>
<path fill="none" stroke="grey" stroke-width="2" d="M554.6,-71.7C561.12,-63.39 569.07,-53.28 576.25,-44.14"/>
<polygon fill="grey" stroke="grey" stroke-width="2" points="579.13,-46.13 582.56,-36.1 573.63,-41.81 579.13,-46.13"/>
</g>
<!-- 2 -->
<g id="node3" class="node">
<title>2</title>
<path fill="none" stroke="#97d856" stroke-width="2" d="M791.5,-108C791.5,-108 722.5,-108 722.5,-108 716.5,-108 710.5,-102 710.5,-96 710.5,-96 710.5,-84 710.5,-84 710.5,-78 716.5,-72 722.5,-72 722.5,-72 791.5,-72 791.5,-72 797.5,-72 803.5,-78 803.5,-84 803.5,-84 803.5,-96 803.5,-96 803.5,-102 797.5,-108 791.5,-108"/>
<text text-anchor="middle" x="757" y="-87.5" font-family="sans" font-size="10.00">trinotate_report</text>
</g>
<!-- 2&#45;&gt;0 -->
<g id="edge2" class="edge">
<title>2&#45;&gt;0</title>
<path fill="none" stroke="grey" stroke-width="2" d="M717.61,-71.88C691.7,-60.61 658,-45.96 632.65,-34.94"/>
<polygon fill="grey" stroke="grey" stroke-width="2" points="633.95,-31.68 623.38,-30.9 631.16,-38.1 633.95,-31.68"/>
</g>
<!-- 3 -->
<g id="node4" class="node">
<title>3</title>
<path fill="none" stroke="#56d882" stroke-width="2" d="M362.5,-180C362.5,-180 301.5,-180 301.5,-180 295.5,-180 289.5,-174 289.5,-168 289.5,-168 289.5,-156 289.5,-156 289.5,-150 295.5,-144 301.5,-144 301.5,-144 362.5,-144 362.5,-144 368.5,-144 374.5,-150 374.5,-156 374.5,-156 374.5,-168 374.5,-168 374.5,-174 368.5,-180 362.5,-180"/>
<text text-anchor="middle" x="332" y="-159.5" font-family="sans" font-size="10.00">trinotate_load</text>
</g>
<!-- 3&#45;&gt;1 -->
<g id="edge3" class="edge">
<title>3&#45;&gt;1</title>
<path fill="none" stroke="grey" stroke-width="2" d="M374.55,-146.75C406.29,-136.12 449.98,-121.49 484.63,-109.88"/>
<polygon fill="grey" stroke="grey" stroke-width="2" points="485.78,-113.19 494.15,-106.69 483.55,-106.55 485.78,-113.19"/>
</g>
<!-- 4 -->
<g id="node5" class="node">
<title>4</title>
<path fill="none" stroke="#56d882" stroke-width="2" d="M937.5,-180C937.5,-180 876.5,-180 876.5,-180 870.5,-180 864.5,-174 864.5,-168 864.5,-168 864.5,-156 864.5,-156 864.5,-150 870.5,-144 876.5,-144 876.5,-144 937.5,-144 937.5,-144 943.5,-144 949.5,-150 949.5,-156 949.5,-156 949.5,-168 949.5,-168 949.5,-174 943.5,-180 937.5,-180"/>
<text text-anchor="middle" x="907" y="-159.5" font-family="sans" font-size="10.00">trinotate_load</text>
</g>
<!-- 4&#45;&gt;2 -->
<g id="edge4" class="edge">
<title>4&#45;&gt;2</title>
<path fill="none" stroke="grey" stroke-width="2" d="M870.31,-143.88C849.98,-134.39 824.53,-122.51 802.9,-112.42"/>
<polygon fill="grey" stroke="grey" stroke-width="2" points="804.12,-109.13 793.57,-108.07 801.16,-115.47 804.12,-109.13"/>
</g>
<!-- 5 -->
<g id="node6" class="node">
<title>5</title>
<path fill="none" stroke="#80d856" stroke-width="2" d="M532,-540C532,-540 452,-540 452,-540 446,-540 440,-534 440,-528 440,-528 440,-516 440,-516 440,-510 446,-504 452,-504 452,-504 532,-504 532,-504 538,-504 544,-510 544,-516 544,-516 544,-528 544,-528 544,-534 538,-540 532,-540"/>
<text text-anchor="middle" x="492" y="-519.5" font-family="sans" font-size="10.00">bedtools_getfasta</text>
</g>
<!-- 5&#45;&gt;3 -->
<g id="edge5" class="edge">
<title>5&#45;&gt;3</title>
<path fill="none" stroke="grey" stroke-width="2" d="M543.14,-503.91C560.73,-495.65 578.99,-483.97 591,-468 615.31,-435.67 610,-419.45 610,-379 610,-379 610,-379 610,-305 610,-204.82 465.06,-175.28 384.49,-166.59"/>
<polygon fill="grey" stroke="grey" stroke-width="2" points="384.83,-163.11 374.52,-165.59 384.12,-170.08 384.83,-163.11"/>
</g>
<!-- 7 -->
<g id="node8" class="node">
<title>7</title>
<path fill="none" stroke="#d86e56" stroke-width="2" d="M324,-468C324,-468 268,-468 268,-468 262,-468 256,-462 256,-456 256,-456 256,-444 256,-444 256,-438 262,-432 268,-432 268,-432 324,-432 324,-432 330,-432 336,-438 336,-444 336,-444 336,-456 336,-456 336,-462 330,-468 324,-468"/>
<text text-anchor="middle" x="296" y="-447.5" font-family="sans" font-size="10.00">transdecoder</text>
</g>
<!-- 5&#45;&gt;7 -->
<g id="edge28" class="edge">
<title>5&#45;&gt;7</title>
<path fill="none" stroke="grey" stroke-width="2" d="M444.3,-503.97C414.45,-493.3 376.04,-479.59 345.8,-468.79"/>
<polygon fill="grey" stroke="grey" stroke-width="2" points="346.88,-465.46 336.29,-465.39 344.53,-472.05 346.88,-465.46"/>
</g>
<!-- 8 -->
<g id="node9" class="node">
<title>8</title>
<path fill="none" stroke="#56d8d8" stroke-width="2" d="M474,-252C474,-252 444,-252 444,-252 438,-252 432,-246 432,-240 432,-240 432,-228 432,-228 432,-222 438,-216 444,-216 444,-216 474,-216 474,-216 480,-216 486,-222 486,-228 486,-228 486,-240 486,-240 486,-246 480,-252 474,-252"/>
<text text-anchor="middle" x="459" y="-231.5" font-family="sans" font-size="10.00">blastx</text>
</g>
<!-- 5&#45;&gt;8 -->
<g id="edge30" class="edge">
<title>5&#45;&gt;8</title>
<path fill="none" stroke="grey" stroke-width="2" d="M493.75,-503.72C497.22,-464.63 503.05,-366.68 484,-288 481.77,-278.8 477.87,-269.3 473.79,-260.91"/>
<polygon fill="grey" stroke="grey" stroke-width="2" points="476.89,-259.29 469.2,-252.01 470.67,-262.5 476.89,-259.29"/>
</g>
<!-- 13 -->
<g id="node14" class="node">
<title>13</title>
<path fill="none" stroke="#d8c356" stroke-width="2" d="M570,-468C570,-468 532,-468 532,-468 526,-468 520,-462 520,-456 520,-456 520,-444 520,-444 520,-438 526,-432 532,-432 532,-432 570,-432 570,-432 576,-432 582,-438 582,-444 582,-444 582,-456 582,-456 582,-462 576,-468 570,-468"/>
<text text-anchor="middle" x="551" y="-447.5" font-family="sans" font-size="10.00">rnammer</text>
</g>
<!-- 5&#45;&gt;13 -->
<g id="edge39" class="edge">
<title>5&#45;&gt;13</title>
<path fill="none" stroke="grey" stroke-width="2" d="M506.58,-503.7C513.66,-495.3 522.28,-485.07 530.05,-475.86"/>
<polygon fill="grey" stroke="grey" stroke-width="2" points="532.81,-478.01 536.58,-468.1 527.46,-473.49 532.81,-478.01"/>
</g>
<!-- 6 -->
<g id="node7" class="node">
<title>6</title>
<path fill="none" stroke="#d85656" stroke-width="2" d="M342,-612C342,-612 304,-612 304,-612 298,-612 292,-606 292,-600 292,-600 292,-588 292,-588 292,-582 298,-576 304,-576 304,-576 342,-576 342,-576 348,-576 354,-582 354,-588 354,-588 354,-600 354,-600 354,-606 348,-612 342,-612"/>
<text text-anchor="middle" x="323" y="-591.5" font-family="sans" font-size="10.00">prep_trsc</text>
</g>
<!-- 6&#45;&gt;3 -->
<g id="edge6" class="edge">
<title>6&#45;&gt;3</title>
<path fill="none" stroke="grey" stroke-width="2" d="M291.74,-593.32C210.68,-592.35 0,-577.65 0,-451 0,-451 0,-451 0,-305 0,-185.06 185.44,-165.08 279.14,-162.64"/>
<polygon fill="grey" stroke="grey" stroke-width="2" points="279.35,-166.14 289.28,-162.44 279.21,-159.14 279.35,-166.14"/>
</g>
<!-- 6&#45;&gt;5 -->
<g id="edge26" class="edge">
<title>6&#45;&gt;5</title>
<path fill="none" stroke="grey" stroke-width="2" d="M354.39,-580C378.83,-569.87 413.25,-555.62 441.54,-543.9"/>
<polygon fill="grey" stroke="grey" stroke-width="2" points="442.98,-547.09 450.88,-540.03 440.3,-540.63 442.98,-547.09"/>
</g>
<!-- 6&#45;&gt;7 -->
<g id="edge29" class="edge">
<title>6&#45;&gt;7</title>
<path fill="none" stroke="grey" stroke-width="2" d="M319.74,-575.87C315.14,-551.67 306.69,-507.21 301.21,-478.39"/>
<polygon fill="grey" stroke="grey" stroke-width="2" points="304.57,-477.36 299.27,-468.19 297.7,-478.67 304.57,-477.36"/>
</g>
<!-- 7&#45;&gt;3 -->
<g id="edge7" class="edge">
<title>7&#45;&gt;3</title>
<path fill="none" stroke="grey" stroke-width="2" d="M255.73,-446.02C194.23,-440.53 81.47,-426.49 57,-396 46.99,-383.52 55.9,-375.96 57,-360 61.46,-295.54 32.86,-263.19 77,-216 103.94,-187.2 212.54,-173.04 279.02,-166.94"/>
<polygon fill="grey" stroke="grey" stroke-width="2" points="279.66,-170.4 289.31,-166.03 279.04,-163.43 279.66,-170.4"/>
</g>
<!-- 9 -->
<g id="node10" class="node">
<title>9</title>
<path fill="none" stroke="#d89556" stroke-width="2" d="M402,-252C402,-252 372,-252 372,-252 366,-252 360,-246 360,-240 360,-240 360,-228 360,-228 360,-222 366,-216 372,-216 372,-216 402,-216 402,-216 408,-216 414,-222 414,-228 414,-228 414,-240 414,-240 414,-246 408,-252 402,-252"/>
<text text-anchor="middle" x="387" y="-231.5" font-family="sans" font-size="10.00">blastp</text>
</g>
<!-- 7&#45;&gt;9 -->
<g id="edge32" class="edge">
<title>7&#45;&gt;9</title>
<path fill="none" stroke="grey" stroke-width="2" d="M336.18,-432.83C377.58,-413.73 439.78,-377.61 467,-324 474.24,-309.73 474.57,-302.1 467,-288 461.93,-278.56 441.76,-265.23 422.94,-254.29"/>
<polygon fill="grey" stroke="grey" stroke-width="2" points="424.59,-251.21 414.17,-249.31 421.13,-257.29 424.59,-251.21"/>
</g>
<!-- 11 -->
<g id="node12" class="node">
<title>11</title>
<path fill="none" stroke="#566bd8" stroke-width="2" d="M256,-396C256,-396 224,-396 224,-396 218,-396 212,-390 212,-384 212,-384 212,-372 212,-372 212,-366 218,-360 224,-360 224,-360 256,-360 256,-360 262,-360 268,-366 268,-372 268,-372 268,-384 268,-384 268,-390 262,-396 256,-396"/>
<text text-anchor="middle" x="240" y="-375.5" font-family="sans" font-size="10.00">tmhmm</text>
</g>
<!-- 7&#45;&gt;11 -->
<g id="edge36" class="edge">
<title>7&#45;&gt;11</title>
<path fill="none" stroke="grey" stroke-width="2" d="M282.16,-431.7C275.51,-423.39 267.42,-413.28 260.11,-404.14"/>
<polygon fill="grey" stroke="grey" stroke-width="2" points="262.66,-401.73 253.68,-396.1 257.2,-406.1 262.66,-401.73"/>
</g>
<!-- 12 -->
<g id="node13" class="node">
<title>12</title>
<path fill="none" stroke="#56d8c1" stroke-width="2" d="M291.5,-252C291.5,-252 250.5,-252 250.5,-252 244.5,-252 238.5,-246 238.5,-240 238.5,-240 238.5,-228 238.5,-228 238.5,-222 244.5,-216 250.5,-216 250.5,-216 291.5,-216 291.5,-216 297.5,-216 303.5,-222 303.5,-228 303.5,-228 303.5,-240 303.5,-240 303.5,-246 297.5,-252 291.5,-252"/>
<text text-anchor="middle" x="271" y="-231.5" font-family="sans" font-size="10.00">hmmscan</text>
</g>
<!-- 7&#45;&gt;12 -->
<g id="edge37" class="edge">
<title>7&#45;&gt;12</title>
<path fill="none" stroke="grey" stroke-width="2" d="M295.07,-431.67C293.46,-413.01 289.05,-382.94 277,-360 266.77,-340.52 251.13,-344.45 243,-324 234.74,-303.24 243.52,-279.01 253.36,-261.07"/>
<polygon fill="grey" stroke="grey" stroke-width="2" points="256.46,-262.71 258.53,-252.32 250.43,-259.16 256.46,-262.71"/>
</g>
<!-- 28 -->
<g id="node29" class="node">
<title>28</title>
<path fill="none" stroke="#68d856" stroke-width="2" d="M182,-396C182,-396 78,-396 78,-396 72,-396 66,-390 66,-384 66,-384 66,-372 66,-372 66,-366 72,-360 78,-360 78,-360 182,-360 182,-360 188,-360 194,-366 194,-372 194,-372 194,-384 194,-384 194,-390 188,-396 182,-396"/>
<text text-anchor="middle" x="130" y="-375.5" font-family="sans" font-size="10.00">rename_fasta_headers</text>
</g>
<!-- 7&#45;&gt;28 -->
<g id="edge59" class="edge">
<title>7&#45;&gt;28</title>
<path fill="none" stroke="grey" stroke-width="2" d="M255.82,-432.05C232.94,-422.41 204.1,-410.25 179.8,-400"/>
<polygon fill="grey" stroke="grey" stroke-width="2" points="180.96,-396.69 170.39,-396.03 178.24,-403.14 180.96,-396.69"/>
</g>
<!-- 8&#45;&gt;3 -->
<g id="edge8" class="edge">
<title>8&#45;&gt;3</title>
<path fill="none" stroke="grey" stroke-width="2" d="M431.76,-217.98C414.39,-208.41 391.58,-195.84 372.16,-185.14"/>
<polygon fill="grey" stroke="grey" stroke-width="2" points="373.67,-181.97 363.22,-180.21 370.29,-188.1 373.67,-181.97"/>
</g>
<!-- 9&#45;&gt;3 -->
<g id="edge9" class="edge">
<title>9&#45;&gt;3</title>
<path fill="none" stroke="grey" stroke-width="2" d="M373.4,-215.7C366.88,-207.39 358.93,-197.28 351.75,-188.14"/>
<polygon fill="grey" stroke="grey" stroke-width="2" points="354.37,-185.81 345.44,-180.1 348.87,-190.13 354.37,-185.81"/>
</g>
<!-- 10 -->
<g id="node11" class="node">
<title>10</title>
<path fill="none" stroke="#569ad8" stroke-width="2" d="M146,-252C146,-252 98,-252 98,-252 92,-252 86,-246 86,-240 86,-240 86,-228 86,-228 86,-222 92,-216 98,-216 98,-216 146,-216 146,-216 152,-216 158,-222 158,-228 158,-228 158,-240 158,-240 158,-246 152,-252 146,-252"/>
<text text-anchor="middle" x="122" y="-231.5" font-family="sans" font-size="10.00">rename_gff</text>
</g>
<!-- 10&#45;&gt;3 -->
<g id="edge10" class="edge">
<title>10&#45;&gt;3</title>
<path fill="none" stroke="grey" stroke-width="2" d="M158.04,-220.71C162.73,-219.12 167.48,-217.52 172,-216 207.8,-203.99 248.16,-190.62 279.39,-180.31"/>
<polygon fill="grey" stroke="grey" stroke-width="2" points="280.79,-183.54 289.19,-177.08 278.59,-176.89 280.79,-183.54"/>
</g>
<!-- 11&#45;&gt;3 -->
<g id="edge11" class="edge">
<title>11&#45;&gt;3</title>
<path fill="none" stroke="grey" stroke-width="2" d="M232.84,-359.97C220.97,-328.82 201.13,-261.68 229,-216 240.3,-197.48 260.36,-185.16 279.79,-177.1"/>
<polygon fill="grey" stroke="grey" stroke-width="2" points="281.15,-180.33 289.24,-173.48 278.65,-173.79 281.15,-180.33"/>
</g>
<!-- 12&#45;&gt;3 -->
<g id="edge12" class="edge">
<title>12&#45;&gt;3</title>
<path fill="none" stroke="grey" stroke-width="2" d="M286.08,-215.7C293.39,-207.3 302.31,-197.07 310.34,-187.86"/>
<polygon fill="grey" stroke="grey" stroke-width="2" points="313.16,-189.94 317.09,-180.1 307.89,-185.34 313.16,-189.94"/>
</g>
<!-- 13&#45;&gt;3 -->
<g id="edge13" class="edge">
<title>13&#45;&gt;3</title>
<path fill="none" stroke="grey" stroke-width="2" d="M552.14,-431.78C553.97,-389.28 552.61,-278.32 495,-216 466.78,-185.47 420.81,-172.48 384.88,-166.98"/>
<polygon fill="grey" stroke="grey" stroke-width="2" points="384.94,-163.45 374.56,-165.55 383.98,-170.39 384.94,-163.45"/>
</g>
<!-- 14 -->
<g id="node15" class="node">
<title>14</title>
<path fill="none" stroke="#56d89a" stroke-width="2" d="M446,-324C446,-324 264,-324 264,-324 258,-324 252,-318 252,-312 252,-312 252,-300 252,-300 252,-294 258,-288 264,-288 264,-288 446,-288 446,-288 452,-288 458,-294 458,-300 458,-300 458,-312 458,-312 458,-318 452,-324 446,-324"/>
<text text-anchor="middle" x="355" y="-309" font-family="sans" font-size="10.00">trinotate_db</text>
<text text-anchor="middle" x="355" y="-298" font-family="sans" font-size="10.00">genome: Dgu_HS1_HYBRID_SCAFFOLD</text>
</g>
<!-- 14&#45;&gt;3 -->
<g id="edge14" class="edge">
<title>14&#45;&gt;3</title>
<path fill="none" stroke="grey" stroke-width="2" d="M352.23,-287.87C348.31,-263.67 341.1,-219.21 336.44,-190.39"/>
<polygon fill="grey" stroke="grey" stroke-width="2" points="339.84,-189.5 334.78,-180.19 332.93,-190.62 339.84,-189.5"/>
</g>
<!-- 14&#45;&gt;8 -->
<g id="edge31" class="edge">
<title>14&#45;&gt;8</title>
<path fill="none" stroke="grey" stroke-width="2" d="M380.44,-287.88C393.79,-278.89 410.32,-267.76 424.78,-258.03"/>
<polygon fill="grey" stroke="grey" stroke-width="2" points="427.12,-260.68 433.46,-252.19 423.21,-254.87 427.12,-260.68"/>
</g>
<!-- 14&#45;&gt;9 -->
<g id="edge33" class="edge">
<title>14&#45;&gt;9</title>
<path fill="none" stroke="grey" stroke-width="2" d="M362.91,-287.7C366.55,-279.73 370.95,-270.1 374.99,-261.26"/>
<polygon fill="grey" stroke="grey" stroke-width="2" points="378.21,-262.65 379.18,-252.1 371.84,-259.74 378.21,-262.65"/>
</g>
<!-- 14&#45;&gt;12 -->
<g id="edge38" class="edge">
<title>14&#45;&gt;12</title>
<path fill="none" stroke="grey" stroke-width="2" d="M334.24,-287.7C323.76,-278.97 310.89,-268.24 299.5,-258.75"/>
<polygon fill="grey" stroke="grey" stroke-width="2" points="301.45,-255.82 291.53,-252.1 296.97,-261.19 301.45,-255.82"/>
</g>
<!-- 15 -->
<g id="node16" class="node">
<title>15</title>
<path fill="none" stroke="#80d856" stroke-width="2" d="M1242,-540C1242,-540 1162,-540 1162,-540 1156,-540 1150,-534 1150,-528 1150,-528 1150,-516 1150,-516 1150,-510 1156,-504 1162,-504 1162,-504 1242,-504 1242,-504 1248,-504 1254,-510 1254,-516 1254,-516 1254,-528 1254,-528 1254,-534 1248,-540 1242,-540"/>
<text text-anchor="middle" x="1202" y="-519.5" font-family="sans" font-size="10.00">bedtools_getfasta</text>
</g>
<!-- 15&#45;&gt;4 -->
<g id="edge15" class="edge">
<title>15&#45;&gt;4</title>
<path fill="none" stroke="grey" stroke-width="2" d="M1254.29,-508.02C1276.4,-499.98 1300.56,-487.37 1316,-468 1341.21,-436.37 1335,-419.45 1335,-379 1335,-379 1335,-379 1335,-305 1335,-226.73 1073.86,-184.09 959.54,-169.18"/>
<polygon fill="grey" stroke="grey" stroke-width="2" points="959.97,-165.71 949.6,-167.91 959.08,-172.65 959.97,-165.71"/>
</g>
<!-- 17 -->
<g id="node18" class="node">
<title>17</title>
<path fill="none" stroke="#d86e56" stroke-width="2" d="M944,-468C944,-468 888,-468 888,-468 882,-468 876,-462 876,-456 876,-456 876,-444 876,-444 876,-438 882,-432 888,-432 888,-432 944,-432 944,-432 950,-432 956,-438 956,-444 956,-444 956,-456 956,-456 956,-462 950,-468 944,-468"/>
<text text-anchor="middle" x="916" y="-447.5" font-family="sans" font-size="10.00">transdecoder</text>
</g>
<!-- 15&#45;&gt;17 -->
<g id="edge43" class="edge">
<title>15&#45;&gt;17</title>
<path fill="none" stroke="grey" stroke-width="2" d="M1149.88,-508.24C1097.61,-495.45 1017.7,-475.89 966.15,-463.27"/>
<polygon fill="grey" stroke="grey" stroke-width="2" points="966.78,-459.82 956.23,-460.85 965.11,-466.62 966.78,-459.82"/>
</g>
<!-- 18 -->
<g id="node19" class="node">
<title>18</title>
<path fill="none" stroke="#56d8d8" stroke-width="2" d="M1119,-252C1119,-252 1089,-252 1089,-252 1083,-252 1077,-246 1077,-240 1077,-240 1077,-228 1077,-228 1077,-222 1083,-216 1089,-216 1089,-216 1119,-216 1119,-216 1125,-216 1131,-222 1131,-228 1131,-228 1131,-240 1131,-240 1131,-246 1125,-252 1119,-252"/>
<text text-anchor="middle" x="1104" y="-231.5" font-family="sans" font-size="10.00">blastx</text>
</g>
<!-- 15&#45;&gt;18 -->
<g id="edge45" class="edge">
<title>15&#45;&gt;18</title>
<path fill="none" stroke="grey" stroke-width="2" d="M1207.04,-503.95C1218.03,-463.21 1239.93,-358.38 1198,-288 1185.5,-267.02 1161.36,-253.66 1140.67,-245.61"/>
<polygon fill="grey" stroke="grey" stroke-width="2" points="1141.76,-242.28 1131.16,-242.17 1139.38,-248.86 1141.76,-242.28"/>
</g>
<!-- 23 -->
<g id="node24" class="node">
<title>23</title>
<path fill="none" stroke="#d8c356" stroke-width="2" d="M1295,-468C1295,-468 1257,-468 1257,-468 1251,-468 1245,-462 1245,-456 1245,-456 1245,-444 1245,-444 1245,-438 1251,-432 1257,-432 1257,-432 1295,-432 1295,-432 1301,-432 1307,-438 1307,-444 1307,-444 1307,-456 1307,-456 1307,-462 1301,-468 1295,-468"/>
<text text-anchor="middle" x="1276" y="-447.5" font-family="sans" font-size="10.00">rnammer</text>
</g>
<!-- 15&#45;&gt;23 -->
<g id="edge54" class="edge">
<title>15&#45;&gt;23</title>
<path fill="none" stroke="grey" stroke-width="2" d="M1220.29,-503.7C1229.43,-495.05 1240.64,-484.45 1250.6,-475.03"/>
<polygon fill="grey" stroke="grey" stroke-width="2" points="1253.06,-477.52 1257.92,-468.1 1248.25,-472.43 1253.06,-477.52"/>
</g>
<!-- 16 -->
<g id="node17" class="node">
<title>16</title>
<path fill="none" stroke="#d85656" stroke-width="2" d="M935,-612C935,-612 897,-612 897,-612 891,-612 885,-606 885,-600 885,-600 885,-588 885,-588 885,-582 891,-576 897,-576 897,-576 935,-576 935,-576 941,-576 947,-582 947,-588 947,-588 947,-600 947,-600 947,-606 941,-612 935,-612"/>
<text text-anchor="middle" x="916" y="-591.5" font-family="sans" font-size="10.00">prep_trsc</text>
</g>
<!-- 16&#45;&gt;4 -->
<g id="edge16" class="edge">
<title>16&#45;&gt;4</title>
<path fill="none" stroke="grey" stroke-width="2" d="M885,-590.88C814.45,-584.22 648,-557.23 648,-451 648,-451 648,-451 648,-305 648,-260.27 659.8,-243.6 695,-216 740.8,-180.09 807.83,-168.19 854.21,-164.41"/>
<polygon fill="grey" stroke="grey" stroke-width="2" points="854.63,-167.89 864.35,-163.69 854.13,-160.91 854.63,-167.89"/>
</g>
<!-- 16&#45;&gt;15 -->
<g id="edge41" class="edge">
<title>16&#45;&gt;15</title>
<path fill="none" stroke="grey" stroke-width="2" d="M947.15,-585.38C993.2,-574.1 1080.4,-552.76 1139.85,-538.21"/>
<polygon fill="grey" stroke="grey" stroke-width="2" points="1140.99,-541.54 1149.87,-535.76 1139.32,-534.74 1140.99,-541.54"/>
</g>
<!-- 16&#45;&gt;17 -->
<g id="edge44" class="edge">
<title>16&#45;&gt;17</title>
<path fill="none" stroke="grey" stroke-width="2" d="M916,-575.87C916,-551.67 916,-507.21 916,-478.39"/>
<polygon fill="grey" stroke="grey" stroke-width="2" points="919.5,-478.19 916,-468.19 912.5,-478.19 919.5,-478.19"/>
</g>
<!-- 17&#45;&gt;4 -->
<g id="edge17" class="edge">
<title>17&#45;&gt;4</title>
<path fill="none" stroke="grey" stroke-width="2" d="M875.86,-444.73C820.66,-437.95 725.79,-422.66 705,-396 676.54,-359.51 638.94,-315.57 725,-216 756.84,-179.16 812.67,-167.2 854.13,-163.67"/>
<polygon fill="grey" stroke="grey" stroke-width="2" points="854.61,-167.14 864.33,-162.94 854.11,-160.16 854.61,-167.14"/>
</g>
<!-- 19 -->
<g id="node20" class="node">
<title>19</title>
<path fill="none" stroke="#d89556" stroke-width="2" d="M1047,-252C1047,-252 1017,-252 1017,-252 1011,-252 1005,-246 1005,-240 1005,-240 1005,-228 1005,-228 1005,-222 1011,-216 1017,-216 1017,-216 1047,-216 1047,-216 1053,-216 1059,-222 1059,-228 1059,-228 1059,-240 1059,-240 1059,-246 1053,-252 1047,-252"/>
<text text-anchor="middle" x="1032" y="-231.5" font-family="sans" font-size="10.00">blastp</text>
</g>
<!-- 17&#45;&gt;19 -->
<g id="edge47" class="edge">
<title>17&#45;&gt;19</title>
<path fill="none" stroke="grey" stroke-width="2" d="M956.2,-443.48C1017.16,-432.71 1131.16,-402.62 1181,-324 1189.57,-310.49 1190.44,-300.92 1181,-288 1151.66,-247.86 1120.77,-268.59 1068.92,-251.82"/>
<polygon fill="grey" stroke="grey" stroke-width="2" points="1069.95,-248.47 1059.35,-248.38 1067.57,-255.06 1069.95,-248.47"/>
</g>
<!-- 21 -->
<g id="node22" class="node">
<title>21</title>
<path fill="none" stroke="#566bd8" stroke-width="2" d="M904,-396C904,-396 872,-396 872,-396 866,-396 860,-390 860,-384 860,-384 860,-372 860,-372 860,-366 866,-360 872,-360 872,-360 904,-360 904,-360 910,-360 916,-366 916,-372 916,-372 916,-384 916,-384 916,-390 910,-396 904,-396"/>
<text text-anchor="middle" x="888" y="-375.5" font-family="sans" font-size="10.00">tmhmm</text>
</g>
<!-- 17&#45;&gt;21 -->
<g id="edge51" class="edge">
<title>17&#45;&gt;21</title>
<path fill="none" stroke="grey" stroke-width="2" d="M909.08,-431.7C905.93,-423.81 902.12,-414.3 898.62,-405.55"/>
<polygon fill="grey" stroke="grey" stroke-width="2" points="901.81,-404.09 894.84,-396.1 895.31,-406.69 901.81,-404.09"/>
</g>
<!-- 22 -->
<g id="node23" class="node">
<title>22</title>
<path fill="none" stroke="#56d8c1" stroke-width="2" d="M927.5,-252C927.5,-252 886.5,-252 886.5,-252 880.5,-252 874.5,-246 874.5,-240 874.5,-240 874.5,-228 874.5,-228 874.5,-222 880.5,-216 886.5,-216 886.5,-216 927.5,-216 927.5,-216 933.5,-216 939.5,-222 939.5,-228 939.5,-228 939.5,-240 939.5,-240 939.5,-246 933.5,-252 927.5,-252"/>
<text text-anchor="middle" x="907" y="-231.5" font-family="sans" font-size="10.00">hmmscan</text>
</g>
<!-- 17&#45;&gt;22 -->
<g id="edge52" class="edge">
<title>17&#45;&gt;22</title>
<path fill="none" stroke="grey" stroke-width="2" d="M922.23,-431.98C927.94,-413.59 934.23,-383.74 925,-360 917.13,-339.77 899.87,-344.23 892,-324 886.2,-309.09 889.8,-303.85 892,-288 893.18,-279.48 895.39,-270.39 897.75,-262.2"/>
<polygon fill="grey" stroke="grey" stroke-width="2" points="901.17,-262.99 900.76,-252.41 894.48,-260.94 901.17,-262.99"/>
</g>
<!-- 32 -->
<g id="node33" class="node">
<title>32</title>
<path fill="none" stroke="#68d856" stroke-width="2" d="M830,-396C830,-396 726,-396 726,-396 720,-396 714,-390 714,-384 714,-384 714,-372 714,-372 714,-366 720,-360 726,-360 726,-360 830,-360 830,-360 836,-360 842,-366 842,-372 842,-372 842,-384 842,-384 842,-390 836,-396 830,-396"/>
<text text-anchor="middle" x="778" y="-375.5" font-family="sans" font-size="10.00">rename_fasta_headers</text>
</g>
<!-- 17&#45;&gt;32 -->
<g id="edge64" class="edge">
<title>17&#45;&gt;32</title>
<path fill="none" stroke="grey" stroke-width="2" d="M882.24,-431.88C863.78,-422.51 840.72,-410.81 820.98,-400.8"/>
<polygon fill="grey" stroke="grey" stroke-width="2" points="822.39,-397.59 811.89,-396.19 819.22,-403.83 822.39,-397.59"/>
</g>
<!-- 18&#45;&gt;4 -->
<g id="edge18" class="edge">
<title>18&#45;&gt;4</title>
<path fill="none" stroke="grey" stroke-width="2" d="M1076.64,-219.65C1073.74,-218.37 1070.82,-217.13 1068,-216 1032.36,-201.78 991.26,-188.3 959.51,-178.49"/>
<polygon fill="grey" stroke="grey" stroke-width="2" points="960.13,-175.02 949.54,-175.44 958.08,-181.71 960.13,-175.02"/>
</g>
<!-- 19&#45;&gt;4 -->
<g id="edge19" class="edge">
<title>19&#45;&gt;4</title>
<path fill="none" stroke="grey" stroke-width="2" d="M1004.88,-217.81C987.77,-208.23 965.39,-195.7 946.34,-185.03"/>
<polygon fill="grey" stroke="grey" stroke-width="2" points="948.02,-181.96 937.58,-180.13 944.6,-188.07 948.02,-181.96"/>
</g>
<!-- 20 -->
<g id="node21" class="node">
<title>20</title>
<path fill="none" stroke="#569ad8" stroke-width="2" d="M794,-252C794,-252 746,-252 746,-252 740,-252 734,-246 734,-240 734,-240 734,-228 734,-228 734,-222 740,-216 746,-216 746,-216 794,-216 794,-216 800,-216 806,-222 806,-228 806,-228 806,-240 806,-240 806,-246 800,-252 794,-252"/>
<text text-anchor="middle" x="770" y="-231.5" font-family="sans" font-size="10.00">rename_gff</text>
</g>
<!-- 20&#45;&gt;4 -->
<g id="edge20" class="edge">
<title>20&#45;&gt;4</title>
<path fill="none" stroke="grey" stroke-width="2" d="M803.51,-215.88C821.84,-206.51 844.74,-194.81 864.33,-184.8"/>
<polygon fill="grey" stroke="grey" stroke-width="2" points="866.04,-187.86 873.36,-180.19 862.86,-181.62 866.04,-187.86"/>
</g>
<!-- 21&#45;&gt;4 -->
<g id="edge21" class="edge">
<title>21&#45;&gt;4</title>
<path fill="none" stroke="grey" stroke-width="2" d="M880.54,-359.58C868.76,-329.49 848.85,-266.19 866,-216 869.44,-205.93 875.66,-196.28 882.23,-188.05"/>
<polygon fill="grey" stroke="grey" stroke-width="2" points="885,-190.2 888.83,-180.32 879.68,-185.65 885,-190.2"/>
</g>
<!-- 22&#45;&gt;4 -->
<g id="edge22" class="edge">
<title>22&#45;&gt;4</title>
<path fill="none" stroke="grey" stroke-width="2" d="M907,-215.7C907,-207.98 907,-198.71 907,-190.11"/>
<polygon fill="grey" stroke="grey" stroke-width="2" points="910.5,-190.1 907,-180.1 903.5,-190.1 910.5,-190.1"/>
</g>
<!-- 23&#45;&gt;4 -->
<g id="edge23" class="edge">
<title>23&#45;&gt;4</title>
<path fill="none" stroke="grey" stroke-width="2" d="M1272.8,-431.77C1266.46,-400.89 1250.16,-334.94 1219,-288 1192.73,-248.42 1182.11,-237.99 1140,-216 1082.67,-186.05 1008.75,-172.93 959.71,-167.24"/>
<polygon fill="grey" stroke="grey" stroke-width="2" points="959.96,-163.74 949.64,-166.13 959.2,-170.7 959.96,-163.74"/>
</g>
<!-- 24 -->
<g id="node25" class="node">
<title>24</title>
<path fill="none" stroke="#56d89a" stroke-width="2" d="M1159.5,-324C1159.5,-324 912.5,-324 912.5,-324 906.5,-324 900.5,-318 900.5,-312 900.5,-312 900.5,-300 900.5,-300 900.5,-294 906.5,-288 912.5,-288 912.5,-288 1159.5,-288 1159.5,-288 1165.5,-288 1171.5,-294 1171.5,-300 1171.5,-300 1171.5,-312 1171.5,-312 1171.5,-318 1165.5,-324 1159.5,-324"/>
<text text-anchor="middle" x="1036" y="-309" font-family="sans" font-size="10.00">trinotate_db</text>
<text text-anchor="middle" x="1036" y="-298" font-family="sans" font-size="10.00">genome: HS1_Sru_omap1_hap1_HYBRID_SCAFFOLD</text>
</g>
<!-- 24&#45;&gt;4 -->
<g id="edge24" class="edge">
<title>24&#45;&gt;4</title>
<path fill="none" stroke="grey" stroke-width="2" d="M1020.44,-287.87C997.78,-262.92 955.56,-216.45 929.5,-187.77"/>
<polygon fill="grey" stroke="grey" stroke-width="2" points="931.93,-185.24 922.62,-180.19 926.75,-189.94 931.93,-185.24"/>
</g>
<!-- 24&#45;&gt;18 -->
<g id="edge46" class="edge">
<title>24&#45;&gt;18</title>
<path fill="none" stroke="grey" stroke-width="2" d="M1052.81,-287.7C1061.13,-279.14 1071.31,-268.66 1080.39,-259.3"/>
<polygon fill="grey" stroke="grey" stroke-width="2" points="1082.93,-261.72 1087.38,-252.1 1077.91,-256.84 1082.93,-261.72"/>
</g>
<!-- 24&#45;&gt;19 -->
<g id="edge48" class="edge">
<title>24&#45;&gt;19</title>
<path fill="none" stroke="grey" stroke-width="2" d="M1035.01,-287.7C1034.57,-279.98 1034.04,-270.71 1033.55,-262.11"/>
<polygon fill="grey" stroke="grey" stroke-width="2" points="1037.04,-261.89 1032.98,-252.1 1030.05,-262.29 1037.04,-261.89"/>
</g>
<!-- 24&#45;&gt;22 -->
<g id="edge53" class="edge">
<title>24&#45;&gt;22</title>
<path fill="none" stroke="grey" stroke-width="2" d="M1004.44,-287.88C987.34,-278.6 966.02,-267.03 947.68,-257.08"/>
<polygon fill="grey" stroke="grey" stroke-width="2" points="949.14,-253.88 938.68,-252.19 945.8,-260.04 949.14,-253.88"/>
</g>
<!-- 25 -->
<g id="node26" class="node">
<title>25</title>
<path fill="none" stroke="#5682d8" stroke-width="2" d="M463.5,-900C463.5,-900 398.5,-900 398.5,-900 392.5,-900 386.5,-894 386.5,-888 386.5,-888 386.5,-876 386.5,-876 386.5,-870 392.5,-864 398.5,-864 398.5,-864 463.5,-864 463.5,-864 469.5,-864 475.5,-870 475.5,-876 475.5,-876 475.5,-888 475.5,-888 475.5,-894 469.5,-900 463.5,-900"/>
<text text-anchor="middle" x="431" y="-879.5" font-family="sans" font-size="10.00">repeat_masker</text>
</g>
<!-- 25&#45;&gt;5 -->
<g id="edge25" class="edge">
<title>25&#45;&gt;5</title>
<path fill="none" stroke="grey" stroke-width="2" d="M448.04,-863.76C456.75,-854.02 466.8,-841.17 473,-828 490.24,-791.41 492,-779.45 492,-739 492,-739 492,-739 492,-665 492,-625 492,-578.65 492,-550.08"/>
<polygon fill="grey" stroke="grey" stroke-width="2" points="495.5,-550.05 492,-540.05 488.5,-550.05 495.5,-550.05"/>
</g>
<!-- 26 -->
<g id="node27" class="node">
<title>26</title>
<path fill="none" stroke="#d88556" stroke-width="2" d="M344,-684C344,-684 314,-684 314,-684 308,-684 302,-678 302,-672 302,-672 302,-660 302,-660 302,-654 308,-648 314,-648 314,-648 344,-648 344,-648 350,-648 356,-654 356,-660 356,-660 356,-672 356,-672 356,-678 350,-684 344,-684"/>
<text text-anchor="middle" x="329" y="-663.5" font-family="sans" font-size="10.00">braker</text>
</g>
<!-- 25&#45;&gt;26 -->
<g id="edge56" class="edge">
<title>25&#45;&gt;26</title>
<path fill="none" stroke="grey" stroke-width="2" d="M410.89,-863.84C400.39,-854.12 387.91,-841.27 379,-828 351.03,-786.34 338.1,-728.27 332.61,-694.45"/>
<polygon fill="grey" stroke="grey" stroke-width="2" points="336.04,-693.74 331.08,-684.38 329.12,-694.79 336.04,-693.74"/>
</g>
<!-- 34 -->
<g id="node35" class="node">
<title>34</title>
<path fill="none" stroke="#56d86b" stroke-width="2" d="M400.5,-756C400.5,-756 369.5,-756 369.5,-756 363.5,-756 357.5,-750 357.5,-744 357.5,-744 357.5,-732 357.5,-732 357.5,-726 363.5,-720 369.5,-720 369.5,-720 400.5,-720 400.5,-720 406.5,-720 412.5,-726 412.5,-732 412.5,-732 412.5,-744 412.5,-744 412.5,-750 406.5,-756 400.5,-756"/>
<text text-anchor="middle" x="385" y="-735.5" font-family="sans" font-size="10.00">prothint</text>
</g>
<!-- 25&#45;&gt;34 -->
<g id="edge67" class="edge">
<title>25&#45;&gt;34</title>
<path fill="none" stroke="grey" stroke-width="2" d="M412.64,-863.67C403.79,-854.08 394.01,-841.42 389,-828 381.61,-808.23 380.97,-784.25 381.97,-766.16"/>
<polygon fill="grey" stroke="grey" stroke-width="2" points="385.47,-766.25 382.74,-756.01 378.49,-765.72 385.47,-766.25"/>
</g>
<!-- 39 -->
<g id="node40" class="node">
<title>39</title>
<path fill="none" stroke="#afd856" stroke-width="2" d="M452,-828C452,-828 410,-828 410,-828 404,-828 398,-822 398,-816 398,-816 398,-804 398,-804 398,-798 404,-792 410,-792 410,-792 452,-792 452,-792 458,-792 464,-798 464,-804 464,-804 464,-816 464,-816 464,-822 458,-828 452,-828"/>
<text text-anchor="middle" x="431" y="-807.5" font-family="sans" font-size="10.00">genemark</text>
</g>
<!-- 25&#45;&gt;39 -->
<g id="edge74" class="edge">
<title>25&#45;&gt;39</title>
<path fill="none" stroke="grey" stroke-width="2" d="M431,-863.7C431,-855.98 431,-846.71 431,-838.11"/>
<polygon fill="grey" stroke="grey" stroke-width="2" points="434.5,-838.1 431,-828.1 427.5,-838.1 434.5,-838.1"/>
</g>
<!-- 26&#45;&gt;6 -->
<g id="edge27" class="edge">
<title>26&#45;&gt;6</title>
<path fill="none" stroke="grey" stroke-width="2" d="M327.52,-647.7C326.86,-639.98 326.06,-630.71 325.32,-622.11"/>
<polygon fill="grey" stroke="grey" stroke-width="2" points="328.81,-621.77 324.47,-612.1 321.83,-622.37 328.81,-621.77"/>
</g>
<!-- 27 -->
<g id="node28" class="node">
<title>27</title>
<path fill="none" stroke="#59d856" stroke-width="2" d="M146,-324C146,-324 116,-324 116,-324 110,-324 104,-318 104,-312 104,-312 104,-300 104,-300 104,-294 110,-288 116,-288 116,-288 146,-288 146,-288 152,-288 158,-294 158,-300 158,-300 158,-312 158,-312 158,-318 152,-324 146,-324"/>
<text text-anchor="middle" x="131" y="-303.5" font-family="sans" font-size="10.00">signalp</text>
</g>
<!-- 27&#45;&gt;10 -->
<g id="edge34" class="edge">
<title>27&#45;&gt;10</title>
<path fill="none" stroke="grey" stroke-width="2" d="M128.78,-287.7C127.78,-279.98 126.59,-270.71 125.49,-262.11"/>
<polygon fill="grey" stroke="grey" stroke-width="2" points="128.95,-261.58 124.2,-252.1 122,-262.47 128.95,-261.58"/>
</g>
<!-- 28&#45;&gt;10 -->
<g id="edge35" class="edge">
<title>28&#45;&gt;10</title>
<path fill="none" stroke="grey" stroke-width="2" d="M114.82,-359.7C107.27,-349.94 98.93,-337.1 95,-324 90.4,-308.68 91.27,-303.56 95,-288 97.21,-278.81 101.29,-269.41 105.62,-261.13"/>
<polygon fill="grey" stroke="grey" stroke-width="2" points="108.72,-262.77 110.53,-252.33 102.6,-259.36 108.72,-262.77"/>
</g>
<!-- 28&#45;&gt;27 -->
<g id="edge58" class="edge">
<title>28&#45;&gt;27</title>
<path fill="none" stroke="grey" stroke-width="2" d="M130.25,-359.7C130.36,-351.98 130.49,-342.71 130.61,-334.11"/>
<polygon fill="grey" stroke="grey" stroke-width="2" points="134.11,-334.15 130.76,-324.1 127.11,-334.05 134.11,-334.15"/>
</g>
<!-- 29 -->
<g id="node30" class="node">
<title>29</title>
<path fill="none" stroke="#5682d8" stroke-width="2" d="M944.5,-900C944.5,-900 879.5,-900 879.5,-900 873.5,-900 867.5,-894 867.5,-888 867.5,-888 867.5,-876 867.5,-876 867.5,-870 873.5,-864 879.5,-864 879.5,-864 944.5,-864 944.5,-864 950.5,-864 956.5,-870 956.5,-876 956.5,-876 956.5,-888 956.5,-888 956.5,-894 950.5,-900 944.5,-900"/>
<text text-anchor="middle" x="912" y="-879.5" font-family="sans" font-size="10.00">repeat_masker</text>
</g>
<!-- 29&#45;&gt;15 -->
<g id="edge40" class="edge">
<title>29&#45;&gt;15</title>
<path fill="none" stroke="grey" stroke-width="2" d="M956.56,-874.47C1024.46,-861.73 1146,-826.67 1146,-739 1146,-739 1146,-739 1146,-665 1146,-621.91 1168.6,-576.26 1185.08,-548.7"/>
<polygon fill="grey" stroke="grey" stroke-width="2" points="1188.13,-550.42 1190.4,-540.07 1182.17,-546.75 1188.13,-550.42"/>
</g>
<!-- 30 -->
<g id="node31" class="node">
<title>30</title>
<path fill="none" stroke="#d88556" stroke-width="2" d="M931,-684C931,-684 901,-684 901,-684 895,-684 889,-678 889,-672 889,-672 889,-660 889,-660 889,-654 895,-648 901,-648 901,-648 931,-648 931,-648 937,-648 943,-654 943,-660 943,-660 943,-672 943,-672 943,-678 937,-684 931,-684"/>
<text text-anchor="middle" x="916" y="-663.5" font-family="sans" font-size="10.00">braker</text>
</g>
<!-- 29&#45;&gt;30 -->
<g id="edge61" class="edge">
<title>29&#45;&gt;30</title>
<path fill="none" stroke="grey" stroke-width="2" d="M906.68,-863.93C898.22,-834.38 883.66,-771.86 894,-720 895.79,-711.01 899.14,-701.64 902.69,-693.32"/>
<polygon fill="grey" stroke="grey" stroke-width="2" points="905.92,-694.67 906.87,-684.12 899.54,-691.77 905.92,-694.67"/>
</g>
<!-- 36 -->
<g id="node37" class="node">
<title>36</title>
<path fill="none" stroke="#56d86b" stroke-width="2" d="M945.5,-756C945.5,-756 914.5,-756 914.5,-756 908.5,-756 902.5,-750 902.5,-744 902.5,-744 902.5,-732 902.5,-732 902.5,-726 908.5,-720 914.5,-720 914.5,-720 945.5,-720 945.5,-720 951.5,-720 957.5,-726 957.5,-732 957.5,-732 957.5,-744 957.5,-744 957.5,-750 951.5,-756 945.5,-756"/>
<text text-anchor="middle" x="930" y="-735.5" font-family="sans" font-size="10.00">prothint</text>
</g>
<!-- 29&#45;&gt;36 -->
<g id="edge71" class="edge">
<title>29&#45;&gt;36</title>
<path fill="none" stroke="grey" stroke-width="2" d="M914.17,-863.87C917.24,-839.67 922.87,-795.21 926.53,-766.39"/>
<polygon fill="grey" stroke="grey" stroke-width="2" points="930.04,-766.55 927.82,-756.19 923.09,-765.67 930.04,-766.55"/>
</g>
<!-- 41 -->
<g id="node42" class="node">
<title>41</title>
<path fill="none" stroke="#afd856" stroke-width="2" d="M994,-828C994,-828 952,-828 952,-828 946,-828 940,-822 940,-816 940,-816 940,-804 940,-804 940,-798 946,-792 952,-792 952,-792 994,-792 994,-792 1000,-792 1006,-798 1006,-804 1006,-804 1006,-816 1006,-816 1006,-822 1000,-828 994,-828"/>
<text text-anchor="middle" x="973" y="-807.5" font-family="sans" font-size="10.00">genemark</text>
</g>
<!-- 29&#45;&gt;41 -->
<g id="edge76" class="edge">
<title>29&#45;&gt;41</title>
<path fill="none" stroke="grey" stroke-width="2" d="M927.08,-863.7C934.39,-855.3 943.31,-845.07 951.34,-835.86"/>
<polygon fill="grey" stroke="grey" stroke-width="2" points="954.16,-837.94 958.09,-828.1 948.89,-833.34 954.16,-837.94"/>
</g>
<!-- 30&#45;&gt;16 -->
<g id="edge42" class="edge">
<title>30&#45;&gt;16</title>
<path fill="none" stroke="grey" stroke-width="2" d="M916,-647.7C916,-639.98 916,-630.71 916,-622.11"/>
<polygon fill="grey" stroke="grey" stroke-width="2" points="919.5,-622.1 916,-612.1 912.5,-622.1 919.5,-622.1"/>
</g>
<!-- 31 -->
<g id="node32" class="node">
<title>31</title>
<path fill="none" stroke="#59d856" stroke-width="2" d="M794,-324C794,-324 764,-324 764,-324 758,-324 752,-318 752,-312 752,-312 752,-300 752,-300 752,-294 758,-288 764,-288 764,-288 794,-288 794,-288 800,-288 806,-294 806,-300 806,-300 806,-312 806,-312 806,-318 800,-324 794,-324"/>
<text text-anchor="middle" x="779" y="-303.5" font-family="sans" font-size="10.00">signalp</text>
</g>
<!-- 31&#45;&gt;20 -->
<g id="edge49" class="edge">
<title>31&#45;&gt;20</title>
<path fill="none" stroke="grey" stroke-width="2" d="M776.78,-287.7C775.78,-279.98 774.59,-270.71 773.49,-262.11"/>
<polygon fill="grey" stroke="grey" stroke-width="2" points="776.95,-261.58 772.2,-252.1 770,-262.47 776.95,-261.58"/>
</g>
<!-- 32&#45;&gt;20 -->
<g id="edge50" class="edge">
<title>32&#45;&gt;20</title>
<path fill="none" stroke="grey" stroke-width="2" d="M762.82,-359.7C755.27,-349.94 746.93,-337.1 743,-324 738.4,-308.68 739.27,-303.56 743,-288 745.21,-278.81 749.29,-269.41 753.62,-261.13"/>
<polygon fill="grey" stroke="grey" stroke-width="2" points="756.72,-262.77 758.53,-252.33 750.6,-259.36 756.72,-262.77"/>
</g>
<!-- 32&#45;&gt;31 -->
<g id="edge63" class="edge">
<title>32&#45;&gt;31</title>
<path fill="none" stroke="grey" stroke-width="2" d="M778.25,-359.7C778.36,-351.98 778.49,-342.71 778.61,-334.11"/>
<polygon fill="grey" stroke="grey" stroke-width="2" points="782.11,-334.15 778.76,-324.1 775.11,-334.05 782.11,-334.15"/>
</g>
<!-- 33 -->
<g id="node34" class="node">
<title>33</title>
<path fill="none" stroke="#56d8a9" stroke-width="2" d="M545.5,-972C545.5,-972 492.5,-972 492.5,-972 486.5,-972 480.5,-966 480.5,-960 480.5,-960 480.5,-948 480.5,-948 480.5,-942 486.5,-936 492.5,-936 492.5,-936 545.5,-936 545.5,-936 551.5,-936 557.5,-942 557.5,-948 557.5,-948 557.5,-960 557.5,-960 557.5,-966 551.5,-972 545.5,-972"/>
<text text-anchor="middle" x="519" y="-951.5" font-family="sans" font-size="10.00">join_repeats</text>
</g>
<!-- 33&#45;&gt;25 -->
<g id="edge55" class="edge">
<title>33&#45;&gt;25</title>
<path fill="none" stroke="grey" stroke-width="2" d="M497.25,-935.7C486.16,-926.88 472.53,-916.03 460.51,-906.47"/>
<polygon fill="grey" stroke="grey" stroke-width="2" points="462.51,-903.59 452.5,-900.1 458.15,-909.07 462.51,-903.59"/>
</g>
<!-- 34&#45;&gt;26 -->
<g id="edge57" class="edge">
<title>34&#45;&gt;26</title>
<path fill="none" stroke="grey" stroke-width="2" d="M371.16,-719.7C364.51,-711.39 356.42,-701.28 349.11,-692.14"/>
<polygon fill="grey" stroke="grey" stroke-width="2" points="351.66,-689.73 342.68,-684.1 346.2,-694.1 351.66,-689.73"/>
</g>
<!-- 35 -->
<g id="node36" class="node">
<title>35</title>
<path fill="none" stroke="#56d8a9" stroke-width="2" d="M893.5,-972C893.5,-972 840.5,-972 840.5,-972 834.5,-972 828.5,-966 828.5,-960 828.5,-960 828.5,-948 828.5,-948 828.5,-942 834.5,-936 840.5,-936 840.5,-936 893.5,-936 893.5,-936 899.5,-936 905.5,-942 905.5,-948 905.5,-948 905.5,-960 905.5,-960 905.5,-966 899.5,-972 893.5,-972"/>
<text text-anchor="middle" x="867" y="-951.5" font-family="sans" font-size="10.00">join_repeats</text>
</g>
<!-- 35&#45;&gt;29 -->
<g id="edge60" class="edge">
<title>35&#45;&gt;29</title>
<path fill="none" stroke="grey" stroke-width="2" d="M878.12,-935.7C883.36,-927.56 889.7,-917.69 895.48,-908.7"/>
<polygon fill="grey" stroke="grey" stroke-width="2" points="898.54,-910.41 901,-900.1 892.65,-906.62 898.54,-910.41"/>
</g>
<!-- 36&#45;&gt;30 -->
<g id="edge62" class="edge">
<title>36&#45;&gt;30</title>
<path fill="none" stroke="grey" stroke-width="2" d="M926.54,-719.7C925,-711.98 923.14,-702.71 921.42,-694.11"/>
<polygon fill="grey" stroke="grey" stroke-width="2" points="924.81,-693.22 919.42,-684.1 917.95,-694.6 924.81,-693.22"/>
</g>
<!-- 37 -->
<g id="node38" class="node">
<title>37</title>
<path fill="none" stroke="#d6d856" stroke-width="2" d="M731.5,-1044C731.5,-1044 654.5,-1044 654.5,-1044 648.5,-1044 642.5,-1038 642.5,-1032 642.5,-1032 642.5,-1020 642.5,-1020 642.5,-1014 648.5,-1008 654.5,-1008 654.5,-1008 731.5,-1008 731.5,-1008 737.5,-1008 743.5,-1014 743.5,-1020 743.5,-1020 743.5,-1032 743.5,-1032 743.5,-1038 737.5,-1044 731.5,-1044"/>
<text text-anchor="middle" x="693" y="-1023.5" font-family="sans" font-size="10.00">te_class_repbase</text>
</g>
<!-- 37&#45;&gt;33 -->
<g id="edge65" class="edge">
<title>37&#45;&gt;33</title>
<path fill="none" stroke="grey" stroke-width="2" d="M650.43,-1007.88C625.17,-997.71 593.06,-984.79 566.91,-974.27"/>
<polygon fill="grey" stroke="grey" stroke-width="2" points="568.15,-971 557.56,-970.51 565.54,-977.49 568.15,-971"/>
</g>
<!-- 37&#45;&gt;35 -->
<g id="edge69" class="edge">
<title>37&#45;&gt;35</title>
<path fill="none" stroke="grey" stroke-width="2" d="M735.57,-1007.88C760.83,-997.71 792.94,-984.79 819.09,-974.27"/>
<polygon fill="grey" stroke="grey" stroke-width="2" points="820.46,-977.49 828.44,-970.51 817.85,-971 820.46,-977.49"/>
</g>
<!-- 38 -->
<g id="node39" class="node">
<title>38</title>
<path fill="none" stroke="#c6d856" stroke-width="2" d="M556,-1044C556,-1044 482,-1044 482,-1044 476,-1044 470,-1038 470,-1032 470,-1032 470,-1020 470,-1020 470,-1014 476,-1008 482,-1008 482,-1008 556,-1008 556,-1008 562,-1008 568,-1014 568,-1020 568,-1020 568,-1032 568,-1032 568,-1038 562,-1044 556,-1044"/>
<text text-anchor="middle" x="519" y="-1023.5" font-family="sans" font-size="10.00">te_class_denovo</text>
</g>
<!-- 38&#45;&gt;33 -->
<g id="edge66" class="edge">
<title>38&#45;&gt;33</title>
<path fill="none" stroke="grey" stroke-width="2" d="M519,-1007.7C519,-999.98 519,-990.71 519,-982.11"/>
<polygon fill="grey" stroke="grey" stroke-width="2" points="522.5,-982.1 519,-972.1 515.5,-982.1 522.5,-982.1"/>
</g>
<!-- 39&#45;&gt;34 -->
<g id="edge68" class="edge">
<title>39&#45;&gt;34</title>
<path fill="none" stroke="grey" stroke-width="2" d="M419.63,-791.7C414.28,-783.56 407.8,-773.69 401.89,-764.7"/>
<polygon fill="grey" stroke="grey" stroke-width="2" points="404.66,-762.54 396.24,-756.1 398.81,-766.38 404.66,-762.54"/>
</g>
<!-- 40 -->
<g id="node41" class="node">
<title>40</title>
<path fill="none" stroke="#c6d856" stroke-width="2" d="M904,-1044C904,-1044 830,-1044 830,-1044 824,-1044 818,-1038 818,-1032 818,-1032 818,-1020 818,-1020 818,-1014 824,-1008 830,-1008 830,-1008 904,-1008 904,-1008 910,-1008 916,-1014 916,-1020 916,-1020 916,-1032 916,-1032 916,-1038 910,-1044 904,-1044"/>
<text text-anchor="middle" x="867" y="-1023.5" font-family="sans" font-size="10.00">te_class_denovo</text>
</g>
<!-- 40&#45;&gt;35 -->
<g id="edge70" class="edge">
<title>40&#45;&gt;35</title>
<path fill="none" stroke="grey" stroke-width="2" d="M867,-1007.7C867,-999.98 867,-990.71 867,-982.11"/>
<polygon fill="grey" stroke="grey" stroke-width="2" points="870.5,-982.1 867,-972.1 863.5,-982.1 870.5,-982.1"/>
</g>
<!-- 41&#45;&gt;36 -->
<g id="edge72" class="edge">
<title>41&#45;&gt;36</title>
<path fill="none" stroke="grey" stroke-width="2" d="M962.37,-791.7C957.37,-783.56 951.31,-773.69 945.79,-764.7"/>
<polygon fill="grey" stroke="grey" stroke-width="2" points="948.72,-762.79 940.51,-756.1 942.76,-766.46 948.72,-762.79"/>
</g>
<!-- 42 -->
<g id="node43" class="node">
<title>42</title>
<path fill="none" stroke="#d8ac56" stroke-width="2" d="M555.5,-1116C555.5,-1116 482.5,-1116 482.5,-1116 476.5,-1116 470.5,-1110 470.5,-1104 470.5,-1104 470.5,-1092 470.5,-1092 470.5,-1086 476.5,-1080 482.5,-1080 482.5,-1080 555.5,-1080 555.5,-1080 561.5,-1080 567.5,-1086 567.5,-1092 567.5,-1092 567.5,-1104 567.5,-1104 567.5,-1110 561.5,-1116 555.5,-1116"/>
<text text-anchor="middle" x="519" y="-1095.5" font-family="sans" font-size="10.00">repeat_classifier</text>
</g>
<!-- 42&#45;&gt;38 -->
<g id="edge73" class="edge">
<title>42&#45;&gt;38</title>
<path fill="none" stroke="grey" stroke-width="2" d="M519,-1079.7C519,-1071.98 519,-1062.71 519,-1054.11"/>
<polygon fill="grey" stroke="grey" stroke-width="2" points="522.5,-1054.1 519,-1044.1 515.5,-1054.1 522.5,-1054.1"/>
</g>
<!-- 43 -->
<g id="node44" class="node">
<title>43</title>
<path fill="none" stroke="#d8ac56" stroke-width="2" d="M903.5,-1116C903.5,-1116 830.5,-1116 830.5,-1116 824.5,-1116 818.5,-1110 818.5,-1104 818.5,-1104 818.5,-1092 818.5,-1092 818.5,-1086 824.5,-1080 830.5,-1080 830.5,-1080 903.5,-1080 903.5,-1080 909.5,-1080 915.5,-1086 915.5,-1092 915.5,-1092 915.5,-1104 915.5,-1104 915.5,-1110 909.5,-1116 903.5,-1116"/>
<text text-anchor="middle" x="867" y="-1095.5" font-family="sans" font-size="10.00">repeat_classifier</text>
</g>
<!-- 43&#45;&gt;40 -->
<g id="edge75" class="edge">
<title>43&#45;&gt;40</title>
<path fill="none" stroke="grey" stroke-width="2" d="M867,-1079.7C867,-1071.98 867,-1062.71 867,-1054.11"/>
<polygon fill="grey" stroke="grey" stroke-width="2" points="870.5,-1054.1 867,-1044.1 863.5,-1054.1 870.5,-1054.1"/>
</g>
<!-- 44 -->
<g id="node45" class="node">
<title>44</title>
<path fill="none" stroke="#56c1d8" stroke-width="2" d="M610,-1188C610,-1188 428,-1188 428,-1188 422,-1188 416,-1182 416,-1176 416,-1176 416,-1164 416,-1164 416,-1158 422,-1152 428,-1152 428,-1152 610,-1152 610,-1152 616,-1152 622,-1158 622,-1164 622,-1164 622,-1176 622,-1176 622,-1182 616,-1188 610,-1188"/>
<text text-anchor="middle" x="519" y="-1173" font-family="sans" font-size="10.00">repeat_modeler</text>
<text text-anchor="middle" x="519" y="-1162" font-family="sans" font-size="10.00">genome: Dgu_HS1_HYBRID_SCAFFOLD</text>
</g>
<!-- 44&#45;&gt;42 -->
<g id="edge77" class="edge">
<title>44&#45;&gt;42</title>
<path fill="none" stroke="grey" stroke-width="2" d="M519,-1151.7C519,-1143.98 519,-1134.71 519,-1126.11"/>
<polygon fill="grey" stroke="grey" stroke-width="2" points="522.5,-1126.1 519,-1116.1 515.5,-1126.1 522.5,-1126.1"/>
</g>
<!-- 45 -->
<g id="node46" class="node">
<title>45</title>
<path fill="none" stroke="#56c1d8" stroke-width="2" d="M990.5,-1188C990.5,-1188 743.5,-1188 743.5,-1188 737.5,-1188 731.5,-1182 731.5,-1176 731.5,-1176 731.5,-1164 731.5,-1164 731.5,-1158 737.5,-1152 743.5,-1152 743.5,-1152 990.5,-1152 990.5,-1152 996.5,-1152 1002.5,-1158 1002.5,-1164 1002.5,-1164 1002.5,-1176 1002.5,-1176 1002.5,-1182 996.5,-1188 990.5,-1188"/>
<text text-anchor="middle" x="867" y="-1173" font-family="sans" font-size="10.00">repeat_modeler</text>
<text text-anchor="middle" x="867" y="-1162" font-family="sans" font-size="10.00">genome: HS1_Sru_omap1_hap1_HYBRID_SCAFFOLD</text>
</g>
<!-- 45&#45;&gt;43 -->
<g id="edge78" class="edge">
<title>45&#45;&gt;43</title>
<path fill="none" stroke="grey" stroke-width="2" d="M867,-1151.7C867,-1143.98 867,-1134.71 867,-1126.11"/>
<polygon fill="grey" stroke="grey" stroke-width="2" points="870.5,-1126.1 867,-1116.1 863.5,-1126.1 870.5,-1126.1"/>
</g>
</g>
</svg>
