<?xml version="1.0" encoding="UTF-8" standalone="no"?>
<!DOCTYPE svg PUBLIC "-//W3C//DTD SVG 1.1//EN"
 "http://www.w3.org/Graphics/SVG/1.1/DTD/svg11.dtd">
<!-- Generated by graphviz version 2.43.0 (0)
 -->
<!-- Title: snakemake_dag Pages: 1 -->
<svg width="504pt" height="620pt"
 viewBox="0.00 0.00 503.50 620.00" xmlns="http://www.w3.org/2000/svg" xmlns:xlink="http://www.w3.org/1999/xlink">
<g id="graph0" class="graph" transform="scale(1 1) rotate(0) translate(4 616)">
<title>snakemake_dag</title>
<polygon fill="white" stroke="transparent" points="-4,4 -4,-616 499.5,-616 499.5,4 -4,4"/>
<!-- 0 -->
<g id="node1" class="node">
<title>0</title>
<path fill="none" stroke="#56d8c1" stroke-width="2" d="M289.5,-36C289.5,-36 259.5,-36 259.5,-36 253.5,-36 247.5,-30 247.5,-24 247.5,-24 247.5,-12 247.5,-12 247.5,-6 253.5,0 259.5,0 259.5,0 289.5,0 289.5,0 295.5,0 301.5,-6 301.5,-12 301.5,-12 301.5,-24 301.5,-24 301.5,-30 295.5,-36 289.5,-36"/>
<text text-anchor="middle" x="274.5" y="-15.5" font-family="sans" font-size="10.00">all</text>
</g>
<!-- 1 -->
<g id="node2" class="node">
<title>1</title>
<path fill="none" stroke="#d8bc56" stroke-width="2" d="M325.5,-108C325.5,-108 295.5,-108 295.5,-108 289.5,-108 283.5,-102 283.5,-96 283.5,-96 283.5,-84 283.5,-84 283.5,-78 289.5,-72 295.5,-72 295.5,-72 325.5,-72 325.5,-72 331.5,-72 337.5,-78 337.5,-84 337.5,-84 337.5,-96 337.5,-96 337.5,-102 331.5,-108 325.5,-108"/>
<text text-anchor="middle" x="310.5" y="-87.5" font-family="sans" font-size="10.00">braker</text>
</g>
<!-- 1&#45;&gt;0 -->
<g id="edge1" class="edge">
<title>1&#45;&gt;0</title>
<path fill="none" stroke="grey" stroke-width="2" d="M301.6,-71.7C297.5,-63.73 292.55,-54.1 288.01,-45.26"/>
<polygon fill="grey" stroke="grey" stroke-width="2" points="290.98,-43.4 283.3,-36.1 284.76,-46.6 290.98,-43.4"/>
</g>
<!-- 2 -->
<g id="node3" class="node">
<title>2</title>
<path fill="none" stroke="#d8bc56" stroke-width="2" d="M237.5,-108C237.5,-108 207.5,-108 207.5,-108 201.5,-108 195.5,-102 195.5,-96 195.5,-96 195.5,-84 195.5,-84 195.5,-78 201.5,-72 207.5,-72 207.5,-72 237.5,-72 237.5,-72 243.5,-72 249.5,-78 249.5,-84 249.5,-84 249.5,-96 249.5,-96 249.5,-102 243.5,-108 237.5,-108"/>
<text text-anchor="middle" x="222.5" y="-87.5" font-family="sans" font-size="10.00">braker</text>
</g>
<!-- 2&#45;&gt;0 -->
<g id="edge2" class="edge">
<title>2&#45;&gt;0</title>
<path fill="none" stroke="grey" stroke-width="2" d="M235.35,-71.7C241.53,-63.39 249.04,-53.28 255.82,-44.14"/>
<polygon fill="grey" stroke="grey" stroke-width="2" points="258.64,-46.22 261.79,-36.1 253.02,-42.04 258.64,-46.22"/>
</g>
<!-- 3 -->
<g id="node4" class="node">
<title>3</title>
<path fill="none" stroke="#59d856" stroke-width="2" d="M381,-324C381,-324 316,-324 316,-324 310,-324 304,-318 304,-312 304,-312 304,-300 304,-300 304,-294 310,-288 316,-288 316,-288 381,-288 381,-288 387,-288 393,-294 393,-300 393,-300 393,-312 393,-312 393,-318 387,-324 381,-324"/>
<text text-anchor="middle" x="348.5" y="-303.5" font-family="sans" font-size="10.00">repeat_masker</text>
</g>
<!-- 3&#45;&gt;1 -->
<g id="edge3" class="edge">
<title>3&#45;&gt;1</title>
<path fill="none" stroke="grey" stroke-width="2" d="M345.45,-287.85C338.87,-250.75 323.25,-162.81 315.31,-118.1"/>
<polygon fill="grey" stroke="grey" stroke-width="2" points="318.75,-117.47 313.56,-108.23 311.86,-118.69 318.75,-117.47"/>
</g>
<!-- 4 -->
<g id="node5" class="node">
<title>4</title>
<path fill="none" stroke="#56d88a" stroke-width="2" d="M382,-180C382,-180 351,-180 351,-180 345,-180 339,-174 339,-168 339,-168 339,-156 339,-156 339,-150 345,-144 351,-144 351,-144 382,-144 382,-144 388,-144 394,-150 394,-156 394,-156 394,-168 394,-168 394,-174 388,-180 382,-180"/>
<text text-anchor="middle" x="366.5" y="-159.5" font-family="sans" font-size="10.00">prothint</text>
</g>
<!-- 3&#45;&gt;4 -->
<g id="edge8" class="edge">
<title>3&#45;&gt;4</title>
<path fill="none" stroke="grey" stroke-width="2" d="M350.67,-287.87C353.74,-263.67 359.37,-219.21 363.03,-190.39"/>
<polygon fill="grey" stroke="grey" stroke-width="2" points="366.54,-190.55 364.32,-180.19 359.59,-189.67 366.54,-190.55"/>
</g>
<!-- 8 -->
<g id="node9" class="node">
<title>8</title>
<path fill="none" stroke="#56c1d8" stroke-width="2" d="M430.5,-252C430.5,-252 388.5,-252 388.5,-252 382.5,-252 376.5,-246 376.5,-240 376.5,-240 376.5,-228 376.5,-228 376.5,-222 382.5,-216 388.5,-216 388.5,-216 430.5,-216 430.5,-216 436.5,-216 442.5,-222 442.5,-228 442.5,-228 442.5,-240 442.5,-240 442.5,-246 436.5,-252 430.5,-252"/>
<text text-anchor="middle" x="409.5" y="-231.5" font-family="sans" font-size="10.00">genemark</text>
</g>
<!-- 3&#45;&gt;8 -->
<g id="edge15" class="edge">
<title>3&#45;&gt;8</title>
<path fill="none" stroke="grey" stroke-width="2" d="M363.58,-287.7C370.89,-279.3 379.81,-269.07 387.84,-259.86"/>
<polygon fill="grey" stroke="grey" stroke-width="2" points="390.66,-261.94 394.59,-252.1 385.39,-257.34 390.66,-261.94"/>
</g>
<!-- 4&#45;&gt;1 -->
<g id="edge4" class="edge">
<title>4&#45;&gt;1</title>
<path fill="none" stroke="grey" stroke-width="2" d="M352.66,-143.7C346.01,-135.39 337.92,-125.28 330.61,-116.14"/>
<polygon fill="grey" stroke="grey" stroke-width="2" points="333.16,-113.73 324.18,-108.1 327.7,-118.1 333.16,-113.73"/>
</g>
<!-- 5 -->
<g id="node6" class="node">
<title>5</title>
<path fill="none" stroke="#59d856" stroke-width="2" d="M221,-324C221,-324 156,-324 156,-324 150,-324 144,-318 144,-312 144,-312 144,-300 144,-300 144,-294 150,-288 156,-288 156,-288 221,-288 221,-288 227,-288 233,-294 233,-300 233,-300 233,-312 233,-312 233,-318 227,-324 221,-324"/>
<text text-anchor="middle" x="188.5" y="-303.5" font-family="sans" font-size="10.00">repeat_masker</text>
</g>
<!-- 5&#45;&gt;2 -->
<g id="edge5" class="edge">
<title>5&#45;&gt;2</title>
<path fill="none" stroke="grey" stroke-width="2" d="M184.64,-287.57C178.74,-257.46 169.73,-194.14 185.5,-144 188.6,-134.15 194.25,-124.53 200.22,-116.25"/>
<polygon fill="grey" stroke="grey" stroke-width="2" points="203.13,-118.21 206.46,-108.15 197.59,-113.94 203.13,-118.21"/>
</g>
<!-- 6 -->
<g id="node7" class="node">
<title>6</title>
<path fill="none" stroke="#56d88a" stroke-width="2" d="M238,-180C238,-180 207,-180 207,-180 201,-180 195,-174 195,-168 195,-168 195,-156 195,-156 195,-150 201,-144 207,-144 207,-144 238,-144 238,-144 244,-144 250,-150 250,-156 250,-156 250,-168 250,-168 250,-174 244,-180 238,-180"/>
<text text-anchor="middle" x="222.5" y="-159.5" font-family="sans" font-size="10.00">prothint</text>
</g>
<!-- 5&#45;&gt;6 -->
<g id="edge11" class="edge">
<title>5&#45;&gt;6</title>
<path fill="none" stroke="grey" stroke-width="2" d="M191.81,-287.86C195.37,-269.88 201.34,-240.84 207.5,-216 209.63,-207.42 212.17,-198.13 214.56,-189.76"/>
<polygon fill="grey" stroke="grey" stroke-width="2" points="217.93,-190.69 217.35,-180.11 211.21,-188.74 217.93,-190.69"/>
</g>
<!-- 10 -->
<g id="node11" class="node">
<title>10</title>
<path fill="none" stroke="#56c1d8" stroke-width="2" d="M270.5,-252C270.5,-252 228.5,-252 228.5,-252 222.5,-252 216.5,-246 216.5,-240 216.5,-240 216.5,-228 216.5,-228 216.5,-222 222.5,-216 228.5,-216 228.5,-216 270.5,-216 270.5,-216 276.5,-216 282.5,-222 282.5,-228 282.5,-228 282.5,-240 282.5,-240 282.5,-246 276.5,-252 270.5,-252"/>
<text text-anchor="middle" x="249.5" y="-231.5" font-family="sans" font-size="10.00">genemark</text>
</g>
<!-- 5&#45;&gt;10 -->
<g id="edge18" class="edge">
<title>5&#45;&gt;10</title>
<path fill="none" stroke="grey" stroke-width="2" d="M203.58,-287.7C210.89,-279.3 219.81,-269.07 227.84,-259.86"/>
<polygon fill="grey" stroke="grey" stroke-width="2" points="230.66,-261.94 234.59,-252.1 225.39,-257.34 230.66,-261.94"/>
</g>
<!-- 6&#45;&gt;2 -->
<g id="edge6" class="edge">
<title>6&#45;&gt;2</title>
<path fill="none" stroke="grey" stroke-width="2" d="M222.5,-143.7C222.5,-135.98 222.5,-126.71 222.5,-118.11"/>
<polygon fill="grey" stroke="grey" stroke-width="2" points="226,-118.1 222.5,-108.1 219,-118.1 226,-118.1"/>
</g>
<!-- 7 -->
<g id="node8" class="node">
<title>7</title>
<path fill="none" stroke="#d88d56" stroke-width="2" d="M375,-396C375,-396 322,-396 322,-396 316,-396 310,-390 310,-384 310,-384 310,-372 310,-372 310,-366 316,-360 322,-360 322,-360 375,-360 375,-360 381,-360 387,-366 387,-372 387,-372 387,-384 387,-384 387,-390 381,-396 375,-396"/>
<text text-anchor="middle" x="348.5" y="-375.5" font-family="sans" font-size="10.00">join_repeats</text>
</g>
<!-- 7&#45;&gt;3 -->
<g id="edge7" class="edge">
<title>7&#45;&gt;3</title>
<path fill="none" stroke="grey" stroke-width="2" d="M348.5,-359.7C348.5,-351.98 348.5,-342.71 348.5,-334.11"/>
<polygon fill="grey" stroke="grey" stroke-width="2" points="352,-334.1 348.5,-324.1 345,-334.1 352,-334.1"/>
</g>
<!-- 8&#45;&gt;4 -->
<g id="edge9" class="edge">
<title>8&#45;&gt;4</title>
<path fill="none" stroke="grey" stroke-width="2" d="M398.87,-215.7C393.87,-207.56 387.81,-197.69 382.29,-188.7"/>
<polygon fill="grey" stroke="grey" stroke-width="2" points="385.22,-186.79 377.01,-180.1 379.26,-190.46 385.22,-186.79"/>
</g>
<!-- 9 -->
<g id="node10" class="node">
<title>9</title>
<path fill="none" stroke="#d88d56" stroke-width="2" d="M215,-396C215,-396 162,-396 162,-396 156,-396 150,-390 150,-384 150,-384 150,-372 150,-372 150,-366 156,-360 162,-360 162,-360 215,-360 215,-360 221,-360 227,-366 227,-372 227,-372 227,-384 227,-384 227,-390 221,-396 215,-396"/>
<text text-anchor="middle" x="188.5" y="-375.5" font-family="sans" font-size="10.00">join_repeats</text>
</g>
<!-- 9&#45;&gt;5 -->
<g id="edge10" class="edge">
<title>9&#45;&gt;5</title>
<path fill="none" stroke="grey" stroke-width="2" d="M188.5,-359.7C188.5,-351.98 188.5,-342.71 188.5,-334.11"/>
<polygon fill="grey" stroke="grey" stroke-width="2" points="192,-334.1 188.5,-324.1 185,-334.1 192,-334.1"/>
</g>
<!-- 10&#45;&gt;6 -->
<g id="edge12" class="edge">
<title>10&#45;&gt;6</title>
<path fill="none" stroke="grey" stroke-width="2" d="M242.83,-215.7C239.79,-207.81 236.12,-198.3 232.74,-189.55"/>
<polygon fill="grey" stroke="grey" stroke-width="2" points="235.96,-188.17 229.1,-180.1 229.43,-190.69 235.96,-188.17"/>
</g>
<!-- 11 -->
<g id="node12" class="node">
<title>11</title>
<path fill="none" stroke="#88d856" stroke-width="2" d="M310,-468C310,-468 233,-468 233,-468 227,-468 221,-462 221,-456 221,-456 221,-444 221,-444 221,-438 227,-432 233,-432 233,-432 310,-432 310,-432 316,-432 322,-438 322,-444 322,-444 322,-456 322,-456 322,-462 316,-468 310,-468"/>
<text text-anchor="middle" x="271.5" y="-447.5" font-family="sans" font-size="10.00">te_class_repbase</text>
</g>
<!-- 11&#45;&gt;7 -->
<g id="edge13" class="edge">
<title>11&#45;&gt;7</title>
<path fill="none" stroke="grey" stroke-width="2" d="M290.53,-431.7C300.04,-423.05 311.71,-412.45 322.07,-403.03"/>
<polygon fill="grey" stroke="grey" stroke-width="2" points="324.64,-405.42 329.69,-396.1 319.93,-400.24 324.64,-405.42"/>
</g>
<!-- 11&#45;&gt;9 -->
<g id="edge16" class="edge">
<title>11&#45;&gt;9</title>
<path fill="none" stroke="grey" stroke-width="2" d="M250.98,-431.7C240.63,-422.97 227.91,-412.24 216.66,-402.75"/>
<polygon fill="grey" stroke="grey" stroke-width="2" points="218.68,-399.88 208.78,-396.1 214.17,-405.23 218.68,-399.88"/>
</g>
<!-- 12 -->
<g id="node13" class="node">
<title>12</title>
<path fill="none" stroke="#d85656" stroke-width="2" d="M427.5,-468C427.5,-468 353.5,-468 353.5,-468 347.5,-468 341.5,-462 341.5,-456 341.5,-456 341.5,-444 341.5,-444 341.5,-438 347.5,-432 353.5,-432 353.5,-432 427.5,-432 427.5,-432 433.5,-432 439.5,-438 439.5,-444 439.5,-444 439.5,-456 439.5,-456 439.5,-462 433.5,-468 427.5,-468"/>
<text text-anchor="middle" x="390.5" y="-447.5" font-family="sans" font-size="10.00">te_class_denovo</text>
</g>
<!-- 12&#45;&gt;7 -->
<g id="edge14" class="edge">
<title>12&#45;&gt;7</title>
<path fill="none" stroke="grey" stroke-width="2" d="M380.12,-431.7C375.24,-423.56 369.31,-413.69 363.92,-404.7"/>
<polygon fill="grey" stroke="grey" stroke-width="2" points="366.91,-402.88 358.76,-396.1 360.91,-406.48 366.91,-402.88"/>
</g>
<!-- 13 -->
<g id="node14" class="node">
<title>13</title>
<path fill="none" stroke="#d85656" stroke-width="2" d="M187.5,-468C187.5,-468 113.5,-468 113.5,-468 107.5,-468 101.5,-462 101.5,-456 101.5,-456 101.5,-444 101.5,-444 101.5,-438 107.5,-432 113.5,-432 113.5,-432 187.5,-432 187.5,-432 193.5,-432 199.5,-438 199.5,-444 199.5,-444 199.5,-456 199.5,-456 199.5,-462 193.5,-468 187.5,-468"/>
<text text-anchor="middle" x="150.5" y="-447.5" font-family="sans" font-size="10.00">te_class_denovo</text>
</g>
<!-- 13&#45;&gt;9 -->
<g id="edge17" class="edge">
<title>13&#45;&gt;9</title>
<path fill="none" stroke="grey" stroke-width="2" d="M159.89,-431.7C164.26,-423.64 169.56,-413.89 174.4,-404.98"/>
<polygon fill="grey" stroke="grey" stroke-width="2" points="177.52,-406.56 179.21,-396.1 171.37,-403.22 177.52,-406.56"/>
</g>
<!-- 14 -->
<g id="node15" class="node">
<title>14</title>
<path fill="none" stroke="#bed856" stroke-width="2" d="M428,-540C428,-540 355,-540 355,-540 349,-540 343,-534 343,-528 343,-528 343,-516 343,-516 343,-510 349,-504 355,-504 355,-504 428,-504 428,-504 434,-504 440,-510 440,-516 440,-516 440,-528 440,-528 440,-534 434,-540 428,-540"/>
<text text-anchor="middle" x="391.5" y="-519.5" font-family="sans" font-size="10.00">repeat_classifier</text>
</g>
<!-- 14&#45;&gt;12 -->
<g id="edge19" class="edge">
<title>14&#45;&gt;12</title>
<path fill="none" stroke="grey" stroke-width="2" d="M391.25,-503.7C391.14,-495.98 391.01,-486.71 390.89,-478.11"/>
<polygon fill="grey" stroke="grey" stroke-width="2" points="394.39,-478.05 390.74,-468.1 387.39,-478.15 394.39,-478.05"/>
</g>
<!-- 15 -->
<g id="node16" class="node">
<title>15</title>
<path fill="none" stroke="#bed856" stroke-width="2" d="M182,-540C182,-540 109,-540 109,-540 103,-540 97,-534 97,-528 97,-528 97,-516 97,-516 97,-510 103,-504 109,-504 109,-504 182,-504 182,-504 188,-504 194,-510 194,-516 194,-516 194,-528 194,-528 194,-534 188,-540 182,-540"/>
<text text-anchor="middle" x="145.5" y="-519.5" font-family="sans" font-size="10.00">repeat_classifier</text>
</g>
<!-- 15&#45;&gt;13 -->
<g id="edge20" class="edge">
<title>15&#45;&gt;13</title>
<path fill="none" stroke="grey" stroke-width="2" d="M146.74,-503.7C147.29,-495.98 147.95,-486.71 148.56,-478.11"/>
<polygon fill="grey" stroke="grey" stroke-width="2" points="152.06,-478.33 149.28,-468.1 145.07,-477.83 152.06,-478.33"/>
</g>
<!-- 16 -->
<g id="node17" class="node">
<title>16</title>
<path fill="none" stroke="#568ad8" stroke-width="2" d="M483.5,-612C483.5,-612 301.5,-612 301.5,-612 295.5,-612 289.5,-606 289.5,-600 289.5,-600 289.5,-588 289.5,-588 289.5,-582 295.5,-576 301.5,-576 301.5,-576 483.5,-576 483.5,-576 489.5,-576 495.5,-582 495.5,-588 495.5,-588 495.5,-600 495.5,-600 495.5,-606 489.5,-612 483.5,-612"/>
<text text-anchor="middle" x="392.5" y="-597" font-family="sans" font-size="10.00">repeat_modeler</text>
<text text-anchor="middle" x="392.5" y="-586" font-family="sans" font-size="10.00">genome: Dgu_HS1_HYBRID_SCAFFOLD</text>
</g>
<!-- 16&#45;&gt;14 -->
<g id="edge21" class="edge">
<title>16&#45;&gt;14</title>
<path fill="none" stroke="grey" stroke-width="2" d="M392.25,-575.7C392.14,-567.98 392.01,-558.71 391.89,-550.11"/>
<polygon fill="grey" stroke="grey" stroke-width="2" points="395.39,-550.05 391.74,-540.1 388.39,-550.15 395.39,-550.05"/>
</g>
<!-- 17 -->
<g id="node18" class="node">
<title>17</title>
<path fill="none" stroke="#568ad8" stroke-width="2" d="M259,-612C259,-612 12,-612 12,-612 6,-612 0,-606 0,-600 0,-600 0,-588 0,-588 0,-582 6,-576 12,-576 12,-576 259,-576 259,-576 265,-576 271,-582 271,-588 271,-588 271,-600 271,-600 271,-606 265,-612 259,-612"/>
<text text-anchor="middle" x="135.5" y="-597" font-family="sans" font-size="10.00">repeat_modeler</text>
<text text-anchor="middle" x="135.5" y="-586" font-family="sans" font-size="10.00">genome: HS1_Sru_omap1_hap1_HYBRID_SCAFFOLD</text>
</g>
<!-- 17&#45;&gt;15 -->
<g id="edge22" class="edge">
<title>17&#45;&gt;15</title>
<path fill="none" stroke="grey" stroke-width="2" d="M137.97,-575.7C139.07,-567.98 140.4,-558.71 141.63,-550.11"/>
<polygon fill="grey" stroke="grey" stroke-width="2" points="145.11,-550.5 143.06,-540.1 138.18,-549.51 145.11,-550.5"/>
</g>
</g>
</svg>
